{
  "asset": {
    "version": "2.0",
    "generator": "Sonnheide original graybox generator v1"
  },
  "scene": 0,
  "scenes": [
    {
      "nodes": [
        0
      ]
    }
  ],
  "nodes": [
    {
      "name": "residence_graybox",
      "mesh": 0
    }
  ],
  "buffers": [
    {
      "byteLength": 6384,
      "uri": "data:application/octet-stream;base64,"
    }
  ],
  "bufferViews": [
    {
      "buffer": 0,
      "byteOffset": 0,
      "byteLength": 2016,
      "target": 34962
    },
    {
      "buffer": 0,
      "byteOffset": 2016,
      "byteLength": 2016,
      "target": 34962
    },
    {
      "buffer": 0,
      "byteOffset": 4032,
      "byteLength": 1344,
      "target": 34962
    },
    {
      "buffer": 0,
      "byteOffset": 5376,
      "byteLength": 1008,
      "target": 34963
    }
  ],
  "accessors": [
    {
      "bufferView": 0,
      "componentType": 5126,
      "count": 168,
      "type": "VEC3",
      "min": [
        -4.0,
        0.0,
        -4.0
      ],
      "max": [
        4.0,
        3.3,
        4.0
      ]
    },
    {
      "bufferView": 1,
      "componentType": 5126,
      "count": 168,
      "type": "VEC3"
    },
    {
      "bufferView": 2,
      "componentType": 5126,
      "count": 168,
      "type": "VEC2"
    },
    {
      "bufferView": 3,
      "componentType": 5125,
      "count": 252,
      "type": "SCALAR"
    }
  ],
  "materials": [
    {
      "name": "original_graybox",
      "pbrMetallicRoughness": {
        "baseColorFactor": [
          0.55,
          0.57,
          0.6,
          1
        ],
        "metallicFactor": 0,
        "roughnessFactor": 0.85
      }
    }
  ],
  "meshes": [
    {
      "primitives": [
        {
          "attributes": {
            "POSITION": 0,
            "NORMAL": 1,
            "TEXCOORD_0": 2
          },
          "indices": 3,
          "material": 0,
          "mode": 4
        }
      ]
    }
  ],
  "extras": {
    "production_art": false,
    "authorship": "original Sonnheide geometry",
    "unit": "meter",
    "pivot": "footprint_center_ground"
  }
}
