<svg xmlns="http://www.w3.org/2000/svg" viewBox="0 0 48 48" shape-rendering="crispEdges"><rect x="18" y="5" width="14" height="1" fill="#081527"/><rect x="17" y="6" width="16" height="1" fill="#081527"/><rect x="16" y="7" width="2" height="1" fill="#081527"/><rect x="18" y="7" width="1" height="1" fill="#211600"/><rect x="19" y="7" width="6" height="1" fill="#996600"/><rect x="25" y="7" width="7" height="1" fill="#b37700"/><rect x="32" y="7" width="2" height="1" fill="#081527"/><rect x="16" y="8" width="2" height="1" fill="#081527"/><rect x="18" y="8" width="1" height="1" fill="#211600"/><rect x="19" y="8" width="6" height="1" fill="#996600"/><rect x="25" y="8" width="7" height="1" fill="#b37700"/><rect x="32" y="8" width="2" height="1" fill="#081527"/><rect x="16" y="9" width="2" height="1" fill="#081527"/><rect x="18" y="9" width="1" height="1" fill="#211600"/><rect x="19" y="9" width="3" height="1" fill="#996600"/><rect x="22" y="9" width="3" height="1" fill="#422c00"/><rect x="25" y="9" width="4" height="1" fill="#b37700"/><rect x="29" y="9" width="1" height="1" fill="#c98600"/><rect x="30" y="9" width="2" height="1" fill="#b37700"/><rect x="32" y="9" width="2" height="1" fill="#081527"/><rect x="16" y="10" width="2" height="1" fill="#081527"/><rect x="18" y="10" width="1" height="1" fill="#211600"/><rect x="19" y="10" width="3" height="1" fill="#996600"/><rect x="22" y="10" width="3" height="1" fill="#422c00"/><rect x="25" y="10" width="4" height="1" fill="#b37700"/><rect x="29" y="10" width="1" height="1" fill="#c98600"/><rect x="30" y="10" width="2" height="1" fill="#b37700"/><rect x="32" y="10" width="2" height="1" fill="#081527"/><rect x="16" y="11" width="2" height="1" fill="#081527"/><rect x="18" y="11" width="1" height="1" fill="#211600"/><rect x="19" y="11" width="3" height="1" fill="#996600"/><rect x="22" y="11" width="3" height="1" fill="#422c00"/><rect x="25" y="11" width="4" height="1" fill="#b37700"/><rect x="29" y="11" width="1" height="1" fill="#c98600"/><rect x="30" y="11" width="2" height="1" fill="#b37700"/><rect x="32" y="11" width="2" height="1" fill="#081527"/><rect x="16" y="12" width="2" height="1" fill="#081527"/><rect x="18" y="12" width="1" height="1" fill="#211600"/><rect x="19" y="12" width="6" height="1" fill="#996600"/><rect x="25" y="12" width="4" height="1" fill="#b37700"/><rect x="29" y="12" width="1" height="1" fill="#c98600"/><rect x="30" y="12" width="2" height="1" fill="#b37700"/><rect x="32" y="12" width="2" height="1" fill="#081527"/><rect x="16" y="13" width="2" height="1" fill="#081527"/><rect x="18" y="13" width="1" height="1" fill="#211600"/><rect x="19" y="13" width="6" height="1" fill="#996600"/><rect x="25" y="13" width="4" height="1" fill="#b37700"/><rect x="29" y="13" width="1" height="1" fill="#c98600"/><rect x="30" y="13" width="2" height="1" fill="#b37700"/><rect x="32" y="13" width="2" height="1" fill="#081527"/><rect x="16" y="14" width="2" height="1" fill="#081527"/><rect x="18" y="14" width="1" height="1" fill="#211600"/><rect x="19" y="14" width="6" height="1" fill="#996600"/><rect x="25" y="14" width="4" height="1" fill="#b37700"/><rect x="29" y="14" width="1" height="1" fill="#c98600"/><rect x="30" y="14" width="2" height="1" fill="#b37700"/><rect x="32" y="14" width="2" height="1" fill="#081527"/><rect x="16" y="15" width="2" height="1" fill="#081527"/><rect x="18" y="15" width="1" height="1" fill="#211600"/><rect x="19" y="15" width="6" height="1" fill="#996600"/><rect x="25" y="15" width="4" height="1" fill="#b37700"/><rect x="29" y="15" width="1" height="1" fill="#c98600"/><rect x="30" y="15" width="2" height="1" fill="#b37700"/><rect x="32" y="15" width="2" height="1" fill="#081527"/><rect x="16" y="16" width="2" height="1" fill="#081527"/><rect x="18" y="16" width="1" height="1" fill="#211600"/><rect x="19" y="16" width="6" height="1" fill="#996600"/><rect x="25" y="16" width="4" height="1" fill="#b37700"/><rect x="29" y="16" width="1" height="1" fill="#c98600"/><rect x="30" y="16" width="2" height="1" fill="#b37700"/><rect x="32" y="16" width="2" height="1" fill="#081527"/><rect x="16" y="17" width="2" height="1" fill="#081527"/><rect x="18" y="17" width="1" height="1" fill="#211600"/><rect x="19" y="17" width="3" height="1" fill="#996600"/><rect x="22" y="17" width="3" height="1" fill="#422c00"/><rect x="25" y="17" width="4" height="1" fill="#b37700"/><rect x="29" y="17" width="1" height="1" fill="#c98600"/><rect x="30" y="17" width="2" height="1" fill="#b37700"/><rect x="32" y="17" width="2" height="1" fill="#081527"/><rect x="16" y="18" width="2" height="1" fill="#081527"/><rect x="18" y="18" width="1" height="1" fill="#211600"/><rect x="19" y="18" width="3" height="1" fill="#996600"/><rect x="22" y="18" width="3" height="1" fill="#422c00"/><rect x="25" y="18" width="4" height="1" fill="#b37700"/><rect x="29" y="18" width="1" height="1" fill="#c98600"/><rect x="30" y="18" width="2" height="1" fill="#b37700"/><rect x="32" y="18" width="2" height="1" fill="#081527"/><rect x="16" y="19" width="2" height="1" fill="#081527"/><rect x="18" y="19" width="1" height="1" fill="#211600"/><rect x="19" y="19" width="6" height="1" fill="#996600"/><rect x="25" y="19" width="4" height="1" fill="#b37700"/><rect x="29" y="19" width="1" height="1" fill="#c98600"/><rect x="30" y="19" width="2" height="1" fill="#b37700"/><rect x="32" y="19" width="2" height="1" fill="#081527"/><rect x="16" y="20" width="2" height="1" fill="#081527"/><rect x="18" y="20" width="1" height="1" fill="#211600"/><rect x="19" y="20" width="6" height="1" fill="#996600"/><rect x="25" y="20" width="4" height="1" fill="#b37700"/><rect x="29" y="20" width="1" height="1" fill="#c98600"/><rect x="30" y="20" width="2" height="1" fill="#b37700"/><rect x="32" y="20" width="2" height="1" fill="#081527"/><rect x="16" y="21" width="2" height="1" fill="#081527"/><rect x="18" y="21" width="1" height="1" fill="#211600"/><rect x="19" y="21" width="6" height="1" fill="#996600"/><rect x="25" y="21" width="4" height="1" fill="#b37700"/><rect x="29" y="21" width="1" height="1" fill="#c98600"/><rect x="30" y="21" width="2" height="1" fill="#b37700"/><rect x="32" y="21" width="2" height="1" fill="#081527"/><rect x="8" y="22" width="10" height="1" fill="#081527"/><rect x="18" y="22" width="1" height="1" fill="#211600"/><rect x="19" y="22" width="6" height="1" fill="#996600"/><rect x="25" y="22" width="4" height="1" fill="#b37700"/><rect x="29" y="22" width="1" height="1" fill="#c98600"/><rect x="30" y="22" width="2" height="1" fill="#b37700"/><rect x="32" y="22" width="10" height="1" fill="#081527"/><rect x="7" y="23" width="11" height="1" fill="#081527"/><rect x="18" y="23" width="1" height="1" fill="#211600"/><rect x="19" y="23" width="6" height="1" fill="#996600"/><rect x="25" y="23" width="4" height="1" fill="#b37700"/><rect x="29" y="23" width="1" height="1" fill="#c98600"/><rect x="30" y="23" width="2" height="1" fill="#b37700"/><rect x="32" y="23" width="11" height="1" fill="#081527"/><rect x="6" y="24" width="2" height="1" fill="#081527"/><rect x="8" y="24" width="1" height="1" fill="#211600"/><rect x="9" y="24" width="8" height="1" fill="#6b4700"/><rect x="17" y="24" width="3" height="1" fill="#996600"/><rect x="20" y="24" width="3" height="1" fill="#422c00"/><rect x="23" y="24" width="2" height="1" fill="#996600"/><rect x="25" y="24" width="8" height="1" fill="#b37700"/><rect x="33" y="24" width="9" height="1" fill="#c98600"/><rect x="42" y="24" width="2" height="1" fill="#081527"/><rect x="6" y="25" width="2" height="1" fill="#081527"/><rect x="8" y="25" width="1" height="1" fill="#211600"/><rect x="9" y="25" width="8" height="1" fill="#6b4700"/><rect x="17" y="25" width="3" height="1" fill="#996600"/><rect x="20" y="25" width="3" height="1" fill="#422c00"/><rect x="23" y="25" width="2" height="1" fill="#996600"/><rect x="25" y="25" width="8" height="1" fill="#b37700"/><rect x="33" y="25" width="9" height="1" fill="#c98600"/><rect x="42" y="25" width="2" height="1" fill="#081527"/><rect x="6" y="26" width="2" height="1" fill="#081527"/><rect x="8" y="26" width="1" height="1" fill="#211600"/><rect x="9" y="26" width="8" height="1" fill="#6b4700"/><rect x="17" y="26" width="3" height="1" fill="#996600"/><rect x="20" y="26" width="3" height="1" fill="#422c00"/><rect x="23" y="26" width="2" height="1" fill="#996600"/><rect x="25" y="26" width="8" height="1" fill="#b37700"/><rect x="33" y="26" width="9" height="1" fill="#c98600"/><rect x="42" y="26" width="2" height="1" fill="#081527"/><rect x="7" y="27" width="2" height="1" fill="#081527"/><rect x="9" y="27" width="1" height="1" fill="#211600"/><rect x="10" y="27" width="7" height="1" fill="#6b4700"/><rect x="17" y="27" width="3" height="1" fill="#996600"/><rect x="20" y="27" width="3" height="1" fill="#422c00"/><rect x="23" y="27" width="2" height="1" fill="#996600"/><rect x="25" y="27" width="8" height="1" fill="#b37700"/><rect x="33" y="27" width="5" height="1" fill="#c98600"/><rect x="38" y="27" width="1" height="1" fill="#dc9508"/><rect x="39" y="27" width="2" height="1" fill="#c98600"/><rect x="41" y="27" width="2" height="1" fill="#081527"/><rect x="7" y="28" width="2" height="1" fill="#081527"/><rect x="9" y="28" width="2" height="1" fill="#211600"/><rect x="11" y="28" width="6" height="1" fill="#6b4700"/><rect x="17" y="28" width="3" height="1" fill="#996600"/><rect x="20" y="28" width="3" height="1" fill="#422c00"/><rect x="23" y="28" width="2" height="1" fill="#996600"/><rect x="25" y="28" width="8" height="1" fill="#b37700"/><rect x="33" y="28" width="4" height="1" fill="#c98600"/><rect x="37" y="28" width="1" height="1" fill="#dc9508"/><rect x="38" y="28" width="2" height="1" fill="#c98600"/><rect x="40" y="28" width="2" height="1" fill="#081527"/><rect x="8" y="29" width="3" height="1" fill="#081527"/><rect x="11" y="29" width="2" height="1" fill="#211600"/><rect x="13" y="29" width="4" height="1" fill="#6b4700"/><rect x="17" y="29" width="3" height="1" fill="#996600"/><rect x="20" y="29" width="3" height="1" fill="#422c00"/><rect x="23" y="29" width="2" height="1" fill="#996600"/><rect x="25" y="29" width="8" height="1" fill="#b37700"/><rect x="33" y="29" width="2" height="1" fill="#c98600"/><rect x="35" y="29" width="1" height="1" fill="#dc9508"/><rect x="36" y="29" width="3" height="1" fill="#c98600"/><rect x="39" y="29" width="2" height="1" fill="#081527"/><rect x="9" y="30" width="3" height="1" fill="#081527"/><rect x="12" y="30" width="2" height="1" fill="#211600"/><rect x="14" y="30" width="3" height="1" fill="#6b4700"/><rect x="17" y="30" width="3" height="1" fill="#996600"/><rect x="20" y="30" width="3" height="1" fill="#422c00"/><rect x="23" y="30" width="2" height="1" fill="#996600"/><rect x="25" y="30" width="8" height="1" fill="#b37700"/><rect x="33" y="30" width="1" height="1" fill="#c98600"/><rect x="34" y="30" width="1" height="1" fill="#dc9508"/><rect x="35" y="30" width="3" height="1" fill="#c98600"/><rect x="38" y="30" width="2" height="1" fill="#081527"/><rect x="11" y="31" width="2" height="1" fill="#081527"/><rect x="13" y="31" width="2" height="1" fill="#211600"/><rect x="15" y="31" width="2" height="1" fill="#6b4700"/><rect x="17" y="31" width="3" height="1" fill="#996600"/><rect x="20" y="31" width="3" height="1" fill="#422c00"/><rect x="23" y="31" width="2" height="1" fill="#996600"/><rect x="25" y="31" width="8" height="1" fill="#b37700"/><rect x="33" y="31" width="1" height="1" fill="#dc9508"/><rect x="34" y="31" width="3" height="1" fill="#c98600"/><rect x="37" y="31" width="2" height="1" fill="#081527"/><rect x="12" y="32" width="2" height="1" fill="#081527"/><rect x="14" y="32" width="2" height="1" fill="#211600"/><rect x="16" y="32" width="1" height="1" fill="#6b4700"/><rect x="17" y="32" width="3" height="1" fill="#996600"/><rect x="20" y="32" width="3" height="1" fill="#422c00"/><rect x="23" y="32" width="2" height="1" fill="#996600"/><rect x="25" y="32" width="6" height="1" fill="#b37700"/><rect x="31" y="32" width="2" height="1" fill="#dc9508"/><rect x="33" y="32" width="3" height="1" fill="#c98600"/><rect x="36" y="32" width="2" height="1" fill="#081527"/><rect x="13" y="33" width="2" height="1" fill="#081527"/><rect x="15" y="33" width="2" height="1" fill="#211600"/><rect x="17" y="33" width="3" height="1" fill="#996600"/><rect x="20" y="33" width="3" height="1" fill="#422c00"/><rect x="23" y="33" width="2" height="1" fill="#996600"/><rect x="25" y="33" width="5" height="1" fill="#b37700"/><rect x="30" y="33" width="1" height="1" fill="#dc9508"/><rect x="31" y="33" width="2" height="1" fill="#b37700"/><rect x="33" y="33" width="2" height="1" fill="#c98600"/><rect x="35" y="33" width="2" height="1" fill="#081527"/><rect x="14" y="34" width="2" height="1" fill="#081527"/><rect x="16" y="34" width="2" height="1" fill="#211600"/><rect x="18" y="34" width="2" height="1" fill="#996600"/><rect x="20" y="34" width="3" height="1" fill="#422c00"/><rect x="23" y="34" width="2" height="1" fill="#996600"/><rect x="25" y="34" width="4" height="1" fill="#b37700"/><rect x="29" y="34" width="1" height="1" fill="#dc9508"/><rect x="30" y="34" width="3" height="1" fill="#b37700"/><rect x="33" y="34" width="1" height="1" fill="#c98600"/><rect x="34" y="34" width="2" height="1" fill="#081527"/><rect x="15" y="35" width="2" height="1" fill="#081527"/><rect x="17" y="35" width="2" height="1" fill="#211600"/><rect x="19" y="35" width="6" height="1" fill="#996600"/><rect x="25" y="35" width="8" height="1" fill="#b37700"/><rect x="33" y="35" width="2" height="1" fill="#081527"/><rect x="16" y="36" width="2" height="1" fill="#081527"/><rect x="18" y="36" width="1" height="1" fill="#211600"/><rect x="19" y="36" width="6" height="1" fill="#996600"/><rect x="25" y="36" width="3" height="1" fill="#b37700"/><rect x="28" y="36" width="1" height="1" fill="#dc9508"/><rect x="29" y="36" width="3" height="1" fill="#b37700"/><rect x="32" y="36" width="2" height="1" fill="#081527"/><rect x="17" y="37" width="2" height="1" fill="#081527"/><rect x="19" y="37" width="1" height="1" fill="#211600"/><rect x="20" y="37" width="5" height="1" fill="#996600"/><rect x="25" y="37" width="2" height="1" fill="#b37700"/><rect x="27" y="37" width="1" height="1" fill="#dc9508"/><rect x="28" y="37" width="3" height="1" fill="#b37700"/><rect x="31" y="37" width="2" height="1" fill="#081527"/><rect x="17" y="38" width="2" height="1" fill="#081527"/><rect x="19" y="38" width="2" height="1" fill="#211600"/><rect x="21" y="38" width="4" height="1" fill="#996600"/><rect x="25" y="38" width="1" height="1" fill="#b37700"/><rect x="26" y="38" width="1" height="1" fill="#dc9508"/><rect x="27" y="38" width="3" height="1" fill="#b37700"/><rect x="30" y="38" width="2" height="1" fill="#081527"/><rect x="18" y="39" width="3" height="1" fill="#081527"/><rect x="21" y="39" width="2" height="1" fill="#211600"/><rect x="23" y="39" width="2" height="1" fill="#996600"/><rect x="25" y="39" width="4" height="1" fill="#b37700"/><rect x="29" y="39" width="2" height="1" fill="#081527"/><rect x="19" y="40" width="3" height="1" fill="#081527"/><rect x="22" y="40" width="2" height="1" fill="#211600"/><rect x="24" y="40" width="1" height="1" fill="#996600"/><rect x="25" y="40" width="3" height="1" fill="#b37700"/><rect x="28" y="40" width="2" height="1" fill="#081527"/><rect x="21" y="41" width="2" height="1" fill="#081527"/><rect x="23" y="41" width="2" height="1" fill="#211600"/><rect x="25" y="41" width="2" height="1" fill="#b37700"/><rect x="27" y="41" width="2" height="1" fill="#081527"/><rect x="22" y="42" width="6" height="1" fill="#081527"/><rect x="23" y="43" width="4" height="1" fill="#081527"/></svg>
