<svg xmlns="http://www.w3.org/2000/svg" viewBox="0 0 48 48" shape-rendering="crispEdges"><rect x="16" y="4" width="3" height="1" fill="#081527"/><rect x="36" y="4" width="1" height="1" fill="#081527"/><rect x="9" y="5" width="11" height="1" fill="#081527"/><rect x="35" y="5" width="3" height="1" fill="#081527"/><rect x="8" y="6" width="8" height="1" fill="#081527"/><rect x="16" y="6" width="3" height="1" fill="#d1d1d1"/><rect x="19" y="6" width="2" height="1" fill="#081527"/><rect x="34" y="6" width="2" height="1" fill="#081527"/><rect x="36" y="6" width="1" height="1" fill="#b37700"/><rect x="37" y="6" width="2" height="1" fill="#081527"/><rect x="7" y="7" width="2" height="1" fill="#081527"/><rect x="9" y="7" width="5" height="1" fill="#6b4700"/><rect x="14" y="7" width="4" height="1" fill="#d1d1d1"/><rect x="18" y="7" width="2" height="1" fill="#081527"/><rect x="32" y="7" width="4" height="1" fill="#081527"/><rect x="36" y="7" width="1" height="1" fill="#b37700"/><rect x="37" y="7" width="3" height="1" fill="#081527"/><rect x="7" y="8" width="2" height="1" fill="#081527"/><rect x="9" y="8" width="5" height="1" fill="#6b4700"/><rect x="14" y="8" width="3" height="1" fill="#d1d1d1"/><rect x="17" y="8" width="2" height="1" fill="#081527"/><rect x="31" y="8" width="5" height="1" fill="#081527"/><rect x="36" y="8" width="1" height="1" fill="#b37700"/><rect x="37" y="8" width="4" height="1" fill="#081527"/><rect x="7" y="9" width="2" height="1" fill="#081527"/><rect x="9" y="9" width="5" height="1" fill="#996600"/><rect x="14" y="9" width="2" height="1" fill="#d1d1d1"/><rect x="16" y="9" width="2" height="1" fill="#081527"/><rect x="30" y="9" width="2" height="1" fill="#081527"/><rect x="32" y="9" width="4" height="1" fill="#996600"/><rect x="36" y="9" width="1" height="1" fill="#dc9508"/><rect x="37" y="9" width="3" height="1" fill="#996600"/><rect x="40" y="9" width="2" height="1" fill="#081527"/><rect x="7" y="10" width="2" height="1" fill="#081527"/><rect x="9" y="10" width="5" height="1" fill="#996600"/><rect x="14" y="10" width="2" height="1" fill="#d1d1d1"/><rect x="16" y="10" width="2" height="1" fill="#081527"/><rect x="31" y="10" width="5" height="1" fill="#081527"/><rect x="36" y="10" width="1" height="1" fill="#b37700"/><rect x="37" y="10" width="4" height="1" fill="#081527"/><rect x="7" y="11" width="2" height="1" fill="#081527"/><rect x="9" y="11" width="6" height="1" fill="#d1d1d1"/><rect x="15" y="11" width="2" height="1" fill="#081527"/><rect x="32" y="11" width="4" height="1" fill="#081527"/><rect x="36" y="11" width="1" height="1" fill="#b37700"/><rect x="37" y="11" width="3" height="1" fill="#081527"/><rect x="6" y="12" width="2" height="1" fill="#081527"/><rect x="8" y="12" width="7" height="1" fill="#d1d1d1"/><rect x="15" y="12" width="2" height="1" fill="#081527"/><rect x="34" y="12" width="2" height="1" fill="#081527"/><rect x="36" y="12" width="1" height="1" fill="#b37700"/><rect x="37" y="12" width="2" height="1" fill="#081527"/><rect x="5" y="13" width="2" height="1" fill="#081527"/><rect x="7" y="13" width="8" height="1" fill="#d1d1d1"/><rect x="15" y="13" width="2" height="1" fill="#081527"/><rect x="34" y="13" width="2" height="1" fill="#081527"/><rect x="36" y="13" width="1" height="1" fill="#b37700"/><rect x="37" y="13" width="2" height="1" fill="#081527"/><rect x="5" y="14" width="2" height="1" fill="#081527"/><rect x="7" y="14" width="8" height="1" fill="#b8b8b8"/><rect x="15" y="14" width="2" height="1" fill="#081527"/><rect x="35" y="14" width="3" height="1" fill="#081527"/><rect x="4" y="15" width="2" height="1" fill="#081527"/><rect x="6" y="15" width="9" height="1" fill="#b8b8b8"/><rect x="15" y="15" width="2" height="1" fill="#081527"/><rect x="36" y="15" width="1" height="1" fill="#081527"/><rect x="4" y="16" width="2" height="1" fill="#081527"/><rect x="6" y="16" width="5" height="1" fill="#b8b8b8"/><rect x="11" y="16" width="1" height="1" fill="#14181b"/><rect x="12" y="16" width="2" height="1" fill="#b8b8b8"/><rect x="14" y="16" width="2" height="1" fill="#081527"/><rect x="3" y="17" width="2" height="1" fill="#081527"/><rect x="5" y="17" width="5" height="1" fill="#b8b8b8"/><rect x="10" y="17" width="3" height="1" fill="#14181b"/><rect x="13" y="17" width="2" height="1" fill="#b8b8b8"/><rect x="15" y="17" width="2" height="1" fill="#081527"/><rect x="3" y="18" width="2" height="1" fill="#081527"/><rect x="5" y="18" width="4" height="1" fill="#b8b8b8"/><rect x="9" y="18" width="5" height="1" fill="#14181b"/><rect x="14" y="18" width="1" height="1" fill="#b8b8b8"/><rect x="15" y="18" width="2" height="1" fill="#081527"/><rect x="3" y="19" width="2" height="1" fill="#081527"/><rect x="5" y="19" width="6" height="1" fill="#b8b8b8"/><rect x="11" y="19" width="1" height="1" fill="#14181b"/><rect x="12" y="19" width="3" height="1" fill="#b8b8b8"/><rect x="15" y="19" width="2" height="1" fill="#081527"/><rect x="3" y="20" width="2" height="1" fill="#081527"/><rect x="5" y="20" width="10" height="1" fill="#b8b8b8"/><rect x="15" y="20" width="2" height="1" fill="#081527"/><rect x="3" y="21" width="2" height="1" fill="#081527"/><rect x="5" y="21" width="11" height="1" fill="#b8b8b8"/><rect x="16" y="21" width="2" height="1" fill="#081527"/><rect x="2" y="22" width="2" height="1" fill="#081527"/><rect x="4" y="22" width="12" height="1" fill="#b8b8b8"/><rect x="16" y="22" width="2" height="1" fill="#081527"/><rect x="3" y="23" width="2" height="1" fill="#081527"/><rect x="5" y="23" width="11" height="1" fill="#637886"/><rect x="16" y="23" width="2" height="1" fill="#081527"/><rect x="35" y="23" width="1" height="1" fill="#081527"/><rect x="3" y="24" width="2" height="1" fill="#081527"/><rect x="5" y="24" width="12" height="1" fill="#637886"/><rect x="17" y="24" width="2" height="1" fill="#081527"/><rect x="34" y="24" width="3" height="1" fill="#081527"/><rect x="3" y="25" width="2" height="1" fill="#081527"/><rect x="5" y="25" width="6" height="1" fill="#637886"/><rect x="11" y="25" width="1" height="1" fill="#14181b"/><rect x="12" y="25" width="6" height="1" fill="#637886"/><rect x="18" y="25" width="2" height="1" fill="#081527"/><rect x="33" y="25" width="2" height="1" fill="#081527"/><rect x="35" y="25" width="1" height="1" fill="#b37700"/><rect x="36" y="25" width="2" height="1" fill="#081527"/><rect x="3" y="26" width="2" height="1" fill="#081527"/><rect x="5" y="26" width="4" height="1" fill="#637886"/><rect x="9" y="26" width="5" height="1" fill="#14181b"/><rect x="14" y="26" width="5" height="1" fill="#637886"/><rect x="19" y="26" width="2" height="1" fill="#081527"/><rect x="32" y="26" width="3" height="1" fill="#081527"/><rect x="35" y="26" width="1" height="1" fill="#b37700"/><rect x="36" y="26" width="4" height="1" fill="#081527"/><rect x="3" y="27" width="2" height="1" fill="#081527"/><rect x="5" y="27" width="4" height="1" fill="#637886"/><rect x="9" y="27" width="5" height="1" fill="#14181b"/><rect x="14" y="27" width="5" height="1" fill="#637886"/><rect x="19" y="27" width="3" height="1" fill="#081527"/><rect x="31" y="27" width="4" height="1" fill="#081527"/><rect x="35" y="27" width="1" height="1" fill="#b37700"/><rect x="36" y="27" width="5" height="1" fill="#081527"/><rect x="3" y="28" width="2" height="1" fill="#081527"/><rect x="5" y="28" width="4" height="1" fill="#637886"/><rect x="9" y="28" width="6" height="1" fill="#14181b"/><rect x="15" y="28" width="5" height="1" fill="#637886"/><rect x="20" y="28" width="5" height="1" fill="#081527"/><rect x="30" y="28" width="2" height="1" fill="#081527"/><rect x="32" y="28" width="3" height="1" fill="#996600"/><rect x="35" y="28" width="1" height="1" fill="#dc9508"/><rect x="36" y="28" width="3" height="1" fill="#996600"/><rect x="39" y="28" width="1" height="1" fill="#262e34"/><rect x="40" y="28" width="2" height="1" fill="#081527"/><rect x="4" y="29" width="2" height="1" fill="#081527"/><rect x="6" y="29" width="3" height="1" fill="#637886"/><rect x="9" y="29" width="5" height="1" fill="#14181b"/><rect x="14" y="29" width="8" height="1" fill="#637886"/><rect x="22" y="29" width="7" height="1" fill="#081527"/><rect x="30" y="29" width="5" height="1" fill="#081527"/><rect x="35" y="29" width="1" height="1" fill="#b37700"/><rect x="36" y="29" width="2" height="1" fill="#081527"/><rect x="38" y="29" width="2" height="1" fill="#262e34"/><rect x="40" y="29" width="2" height="1" fill="#081527"/><rect x="5" y="30" width="2" height="1" fill="#081527"/><rect x="7" y="30" width="4" height="1" fill="#637886"/><rect x="11" y="30" width="1" height="1" fill="#14181b"/><rect x="12" y="30" width="13" height="1" fill="#637886"/><rect x="25" y="30" width="10" height="1" fill="#081527"/><rect x="35" y="30" width="1" height="1" fill="#b37700"/><rect x="36" y="30" width="1" height="1" fill="#637886"/><rect x="37" y="30" width="2" height="1" fill="#262e34"/><rect x="39" y="30" width="2" height="1" fill="#081527"/><rect x="5" y="31" width="2" height="1" fill="#081527"/><rect x="7" y="31" width="22" height="1" fill="#637886"/><rect x="29" y="31" width="1" height="1" fill="#081527"/><rect x="30" y="31" width="7" height="1" fill="#637886"/><rect x="37" y="31" width="2" height="1" fill="#262e34"/><rect x="39" y="31" width="2" height="1" fill="#081527"/><rect x="6" y="32" width="2" height="1" fill="#081527"/><rect x="8" y="32" width="28" height="1" fill="#566874"/><rect x="36" y="32" width="3" height="1" fill="#262e34"/><rect x="39" y="32" width="2" height="1" fill="#081527"/><rect x="7" y="33" width="2" height="1" fill="#081527"/><rect x="9" y="33" width="8" height="1" fill="#566874"/><rect x="17" y="33" width="1" height="1" fill="#14181b"/><rect x="18" y="33" width="17" height="1" fill="#566874"/><rect x="35" y="33" width="4" height="1" fill="#262e34"/><rect x="39" y="33" width="2" height="1" fill="#081527"/><rect x="7" y="34" width="2" height="1" fill="#081527"/><rect x="9" y="34" width="7" height="1" fill="#566874"/><rect x="16" y="34" width="3" height="1" fill="#14181b"/><rect x="19" y="34" width="15" height="1" fill="#566874"/><rect x="34" y="34" width="4" height="1" fill="#262e34"/><rect x="38" y="34" width="2" height="1" fill="#081527"/><rect x="8" y="35" width="2" height="1" fill="#081527"/><rect x="10" y="35" width="5" height="1" fill="#566874"/><rect x="15" y="35" width="4" height="1" fill="#14181b"/><rect x="19" y="35" width="3" height="1" fill="#566874"/><rect x="22" y="35" width="1" height="1" fill="#6f8696"/><rect x="23" y="35" width="1" height="1" fill="#3d4a52"/><rect x="24" y="35" width="9" height="1" fill="#566874"/><rect x="33" y="35" width="4" height="1" fill="#262e34"/><rect x="37" y="35" width="2" height="1" fill="#081527"/><rect x="9" y="36" width="2" height="1" fill="#081527"/><rect x="11" y="36" width="5" height="1" fill="#566874"/><rect x="16" y="36" width="3" height="1" fill="#14181b"/><rect x="19" y="36" width="3" height="1" fill="#566874"/><rect x="22" y="36" width="3" height="1" fill="#3d4a52"/><rect x="25" y="36" width="7" height="1" fill="#566874"/><rect x="32" y="36" width="4" height="1" fill="#262e34"/><rect x="36" y="36" width="2" height="1" fill="#081527"/><rect x="10" y="37" width="2" height="1" fill="#081527"/><rect x="12" y="37" width="5" height="1" fill="#566874"/><rect x="17" y="37" width="1" height="1" fill="#14181b"/><rect x="18" y="37" width="5" height="1" fill="#566874"/><rect x="23" y="37" width="1" height="1" fill="#3d4a52"/><rect x="24" y="37" width="7" height="1" fill="#566874"/><rect x="31" y="37" width="4" height="1" fill="#262e34"/><rect x="35" y="37" width="2" height="1" fill="#081527"/><rect x="11" y="38" width="2" height="1" fill="#081527"/><rect x="13" y="38" width="1" height="1" fill="#262e34"/><rect x="14" y="38" width="15" height="1" fill="#566874"/><rect x="29" y="38" width="5" height="1" fill="#262e34"/><rect x="34" y="38" width="2" height="1" fill="#081527"/><rect x="12" y="39" width="4" height="1" fill="#081527"/><rect x="16" y="39" width="5" height="1" fill="#262e34"/><rect x="21" y="39" width="1" height="1" fill="#566874"/><rect x="22" y="39" width="9" height="1" fill="#262e34"/><rect x="31" y="39" width="4" height="1" fill="#081527"/><rect x="13" y="40" width="5" height="1" fill="#081527"/><rect x="18" y="40" width="11" height="1" fill="#262e34"/><rect x="29" y="40" width="5" height="1" fill="#081527"/><rect x="16" y="41" width="7" height="1" fill="#081527"/><rect x="23" y="41" width="1" height="1" fill="#262e34"/><rect x="24" y="41" width="7" height="1" fill="#081527"/><rect x="18" y="42" width="11" height="1" fill="#081527"/><rect x="23" y="43" width="1" height="1" fill="#081527"/></svg>
