<svg xmlns="http://www.w3.org/2000/svg" viewBox="0 0 48 48" shape-rendering="crispEdges"><rect x="26" y="5" width="2" height="1" fill="#081527"/><rect x="22" y="6" width="7" height="1" fill="#081527"/><rect x="15" y="7" width="11" height="1" fill="#081527"/><rect x="26" y="7" width="2" height="1" fill="#8e291d"/><rect x="28" y="7" width="2" height="1" fill="#081527"/><rect x="13" y="8" width="9" height="1" fill="#081527"/><rect x="22" y="8" width="6" height="1" fill="#8e291d"/><rect x="28" y="8" width="1" height="1" fill="#3c110c"/><rect x="29" y="8" width="2" height="1" fill="#081527"/><rect x="12" y="9" width="3" height="1" fill="#081527"/><rect x="15" y="9" width="1" height="1" fill="#b43424"/><rect x="16" y="9" width="7" height="1" fill="#8e291d"/><rect x="23" y="9" width="1" height="1" fill="#1f0906"/><rect x="24" y="9" width="5" height="1" fill="#8e291d"/><rect x="29" y="9" width="2" height="1" fill="#081527"/><rect x="11" y="10" width="2" height="1" fill="#081527"/><rect x="13" y="10" width="2" height="1" fill="#8e291d"/><rect x="15" y="10" width="1" height="1" fill="#b43424"/><rect x="16" y="10" width="7" height="1" fill="#8e291d"/><rect x="23" y="10" width="1" height="1" fill="#1f0906"/><rect x="24" y="10" width="5" height="1" fill="#8e291d"/><rect x="29" y="10" width="1" height="1" fill="#3c110c"/><rect x="30" y="10" width="2" height="1" fill="#081527"/><rect x="11" y="11" width="2" height="1" fill="#081527"/><rect x="13" y="11" width="2" height="1" fill="#8e291d"/><rect x="15" y="11" width="1" height="1" fill="#b43424"/><rect x="16" y="11" width="6" height="1" fill="#8e291d"/><rect x="22" y="11" width="1" height="1" fill="#1f0906"/><rect x="23" y="11" width="6" height="1" fill="#8e291d"/><rect x="29" y="11" width="2" height="1" fill="#3c110c"/><rect x="31" y="11" width="2" height="1" fill="#081527"/><rect x="11" y="12" width="2" height="1" fill="#081527"/><rect x="13" y="12" width="2" height="1" fill="#8e291d"/><rect x="15" y="12" width="1" height="1" fill="#b43424"/><rect x="16" y="12" width="6" height="1" fill="#8e291d"/><rect x="22" y="12" width="1" height="1" fill="#1f0906"/><rect x="23" y="12" width="6" height="1" fill="#8e291d"/><rect x="29" y="12" width="2" height="1" fill="#3c110c"/><rect x="31" y="12" width="2" height="1" fill="#081527"/><rect x="11" y="13" width="2" height="1" fill="#081527"/><rect x="13" y="13" width="2" height="1" fill="#8e291d"/><rect x="15" y="13" width="1" height="1" fill="#b43424"/><rect x="16" y="13" width="5" height="1" fill="#8e291d"/><rect x="21" y="13" width="1" height="1" fill="#1f0906"/><rect x="22" y="13" width="6" height="1" fill="#8e291d"/><rect x="28" y="13" width="2" height="1" fill="#3c110c"/><rect x="30" y="13" width="2" height="1" fill="#081527"/><rect x="12" y="14" width="2" height="1" fill="#081527"/><rect x="14" y="14" width="1" height="1" fill="#8e291d"/><rect x="15" y="14" width="1" height="1" fill="#b43424"/><rect x="16" y="14" width="5" height="1" fill="#8e291d"/><rect x="21" y="14" width="1" height="1" fill="#1f0906"/><rect x="22" y="14" width="5" height="1" fill="#8e291d"/><rect x="27" y="14" width="3" height="1" fill="#3c110c"/><rect x="30" y="14" width="2" height="1" fill="#081527"/><rect x="12" y="15" width="2" height="1" fill="#081527"/><rect x="14" y="15" width="12" height="1" fill="#8e291d"/><rect x="26" y="15" width="3" height="1" fill="#3c110c"/><rect x="29" y="15" width="2" height="1" fill="#081527"/><rect x="12" y="16" width="2" height="1" fill="#081527"/><rect x="14" y="16" width="11" height="1" fill="#8e291d"/><rect x="25" y="16" width="4" height="1" fill="#3c110c"/><rect x="29" y="16" width="2" height="1" fill="#081527"/><rect x="11" y="17" width="2" height="1" fill="#081527"/><rect x="13" y="17" width="17" height="1" fill="#996600"/><rect x="30" y="17" width="2" height="1" fill="#081527"/><rect x="11" y="18" width="2" height="1" fill="#081527"/><rect x="13" y="18" width="17" height="1" fill="#996600"/><rect x="30" y="18" width="2" height="1" fill="#081527"/><rect x="10" y="19" width="2" height="1" fill="#081527"/><rect x="12" y="19" width="2" height="1" fill="#3c110c"/><rect x="14" y="19" width="12" height="1" fill="#a02e20"/><rect x="26" y="19" width="3" height="1" fill="#3c110c"/><rect x="29" y="19" width="2" height="1" fill="#081527"/><rect x="9" y="20" width="2" height="1" fill="#081527"/><rect x="11" y="20" width="3" height="1" fill="#3c110c"/><rect x="14" y="20" width="13" height="1" fill="#a02e20"/><rect x="27" y="20" width="3" height="1" fill="#3c110c"/><rect x="30" y="20" width="2" height="1" fill="#081527"/><rect x="8" y="21" width="2" height="1" fill="#081527"/><rect x="10" y="21" width="3" height="1" fill="#3c110c"/><rect x="13" y="21" width="7" height="1" fill="#a02e20"/><rect x="20" y="21" width="1" height="1" fill="#c98600"/><rect x="21" y="21" width="1" height="1" fill="#422c00"/><rect x="22" y="21" width="6" height="1" fill="#a02e20"/><rect x="28" y="21" width="3" height="1" fill="#3c110c"/><rect x="31" y="21" width="2" height="1" fill="#081527"/><rect x="7" y="22" width="2" height="1" fill="#081527"/><rect x="9" y="22" width="3" height="1" fill="#3c110c"/><rect x="12" y="22" width="6" height="1" fill="#a02e20"/><rect x="18" y="22" width="6" height="1" fill="#c98600"/><rect x="24" y="22" width="1" height="1" fill="#422c00"/><rect x="25" y="22" width="4" height="1" fill="#a02e20"/><rect x="29" y="22" width="3" height="1" fill="#3c110c"/><rect x="32" y="22" width="2" height="1" fill="#081527"/><rect x="7" y="23" width="2" height="1" fill="#081527"/><rect x="9" y="23" width="3" height="1" fill="#3c110c"/><rect x="12" y="23" width="5" height="1" fill="#a02e20"/><rect x="17" y="23" width="2" height="1" fill="#c98600"/><rect x="19" y="23" width="3" height="1" fill="#211600"/><rect x="22" y="23" width="3" height="1" fill="#c98600"/><rect x="25" y="23" width="2" height="1" fill="#422c00"/><rect x="27" y="23" width="2" height="1" fill="#a02e20"/><rect x="29" y="23" width="4" height="1" fill="#3c110c"/><rect x="33" y="23" width="2" height="1" fill="#081527"/><rect x="6" y="24" width="2" height="1" fill="#081527"/><rect x="8" y="24" width="3" height="1" fill="#3c110c"/><rect x="11" y="24" width="5" height="1" fill="#a02e20"/><rect x="16" y="24" width="1" height="1" fill="#c98600"/><rect x="17" y="24" width="7" height="1" fill="#211600"/><rect x="24" y="24" width="2" height="1" fill="#c98600"/><rect x="26" y="24" width="2" height="1" fill="#422c00"/><rect x="28" y="24" width="1" height="1" fill="#a02e20"/><rect x="29" y="24" width="5" height="1" fill="#3c110c"/><rect x="34" y="24" width="2" height="1" fill="#081527"/><rect x="6" y="25" width="2" height="1" fill="#081527"/><rect x="8" y="25" width="3" height="1" fill="#3c110c"/><rect x="11" y="25" width="4" height="1" fill="#a02e20"/><rect x="15" y="25" width="2" height="1" fill="#c98600"/><rect x="17" y="25" width="7" height="1" fill="#211600"/><rect x="24" y="25" width="3" height="1" fill="#c98600"/><rect x="27" y="25" width="1" height="1" fill="#422c00"/><rect x="28" y="25" width="2" height="1" fill="#a02e20"/><rect x="30" y="25" width="5" height="1" fill="#3c110c"/><rect x="35" y="25" width="2" height="1" fill="#081527"/><rect x="6" y="26" width="2" height="1" fill="#081527"/><rect x="8" y="26" width="2" height="1" fill="#3c110c"/><rect x="10" y="26" width="5" height="1" fill="#8e291d"/><rect x="15" y="26" width="3" height="1" fill="#996600"/><rect x="18" y="26" width="4" height="1" fill="#211600"/><rect x="22" y="26" width="5" height="1" fill="#996600"/><rect x="27" y="26" width="2" height="1" fill="#422c00"/><rect x="29" y="26" width="2" height="1" fill="#8e291d"/><rect x="31" y="26" width="5" height="1" fill="#3c110c"/><rect x="36" y="26" width="2" height="1" fill="#081527"/><rect x="6" y="27" width="2" height="1" fill="#081527"/><rect x="8" y="27" width="2" height="1" fill="#3c110c"/><rect x="10" y="27" width="5" height="1" fill="#8e291d"/><rect x="15" y="27" width="3" height="1" fill="#996600"/><rect x="18" y="27" width="4" height="1" fill="#211600"/><rect x="22" y="27" width="5" height="1" fill="#996600"/><rect x="27" y="27" width="2" height="1" fill="#422c00"/><rect x="29" y="27" width="3" height="1" fill="#8e291d"/><rect x="32" y="27" width="5" height="1" fill="#3c110c"/><rect x="37" y="27" width="5" height="1" fill="#081527"/><rect x="6" y="28" width="2" height="1" fill="#081527"/><rect x="8" y="28" width="2" height="1" fill="#3c110c"/><rect x="10" y="28" width="4" height="1" fill="#8e291d"/><rect x="14" y="28" width="5" height="1" fill="#996600"/><rect x="19" y="28" width="4" height="1" fill="#211600"/><rect x="23" y="28" width="5" height="1" fill="#996600"/><rect x="28" y="28" width="1" height="1" fill="#422c00"/><rect x="29" y="28" width="3" height="1" fill="#8e291d"/><rect x="32" y="28" width="5" height="1" fill="#3c110c"/><rect x="37" y="28" width="1" height="1" fill="#c98600"/><rect x="38" y="28" width="5" height="1" fill="#081527"/><rect x="5" y="29" width="2" height="1" fill="#081527"/><rect x="7" y="29" width="2" height="1" fill="#3c110c"/><rect x="9" y="29" width="6" height="1" fill="#8e291d"/><rect x="15" y="29" width="3" height="1" fill="#996600"/><rect x="18" y="29" width="7" height="1" fill="#211600"/><rect x="25" y="29" width="2" height="1" fill="#996600"/><rect x="27" y="29" width="2" height="1" fill="#422c00"/><rect x="29" y="29" width="3" height="1" fill="#8e291d"/><rect x="32" y="29" width="3" height="1" fill="#c98600"/><rect x="35" y="29" width="1" height="1" fill="#dc9508"/><rect x="36" y="29" width="6" height="1" fill="#c98600"/><rect x="42" y="29" width="2" height="1" fill="#081527"/><rect x="5" y="30" width="2" height="1" fill="#081527"/><rect x="7" y="30" width="2" height="1" fill="#3c110c"/><rect x="9" y="30" width="6" height="1" fill="#8e291d"/><rect x="15" y="30" width="3" height="1" fill="#6b4700"/><rect x="18" y="30" width="7" height="1" fill="#211600"/><rect x="25" y="30" width="2" height="1" fill="#6b4700"/><rect x="27" y="30" width="2" height="1" fill="#422c00"/><rect x="29" y="30" width="2" height="1" fill="#8e291d"/><rect x="31" y="30" width="2" height="1" fill="#996600"/><rect x="33" y="30" width="8" height="1" fill="#422c00"/><rect x="41" y="30" width="2" height="1" fill="#996600"/><rect x="43" y="30" width="2" height="1" fill="#081527"/><rect x="5" y="31" width="2" height="1" fill="#081527"/><rect x="7" y="31" width="2" height="1" fill="#3c110c"/><rect x="9" y="31" width="6" height="1" fill="#8e291d"/><rect x="15" y="31" width="1" height="1" fill="#422c00"/><rect x="16" y="31" width="2" height="1" fill="#6b4700"/><rect x="18" y="31" width="4" height="1" fill="#211600"/><rect x="22" y="31" width="4" height="1" fill="#6b4700"/><rect x="26" y="31" width="3" height="1" fill="#422c00"/><rect x="29" y="31" width="2" height="1" fill="#8e291d"/><rect x="31" y="31" width="1" height="1" fill="#211600"/><rect x="32" y="31" width="10" height="1" fill="#996600"/><rect x="42" y="31" width="1" height="1" fill="#211600"/><rect x="43" y="31" width="2" height="1" fill="#081527"/><rect x="5" y="32" width="2" height="1" fill="#081527"/><rect x="7" y="32" width="2" height="1" fill="#3c110c"/><rect x="9" y="32" width="7" height="1" fill="#8e291d"/><rect x="16" y="32" width="1" height="1" fill="#422c00"/><rect x="17" y="32" width="2" height="1" fill="#6b4700"/><rect x="19" y="32" width="3" height="1" fill="#211600"/><rect x="22" y="32" width="3" height="1" fill="#6b4700"/><rect x="25" y="32" width="3" height="1" fill="#422c00"/><rect x="28" y="32" width="4" height="1" fill="#8e291d"/><rect x="32" y="32" width="1" height="1" fill="#211600"/><rect x="33" y="32" width="8" height="1" fill="#6b4700"/><rect x="41" y="32" width="1" height="1" fill="#211600"/><rect x="42" y="32" width="2" height="1" fill="#081527"/><rect x="5" y="33" width="2" height="1" fill="#081527"/><rect x="7" y="33" width="3" height="1" fill="#3c110c"/><rect x="10" y="33" width="6" height="1" fill="#5f1c13"/><rect x="16" y="33" width="2" height="1" fill="#422c00"/><rect x="18" y="33" width="6" height="1" fill="#6b4700"/><rect x="24" y="33" width="4" height="1" fill="#422c00"/><rect x="28" y="33" width="3" height="1" fill="#5f1c13"/><rect x="31" y="33" width="2" height="1" fill="#996600"/><rect x="33" y="33" width="4" height="1" fill="#211600"/><rect x="37" y="33" width="1" height="1" fill="#6b4700"/><rect x="38" y="33" width="3" height="1" fill="#211600"/><rect x="41" y="33" width="2" height="1" fill="#996600"/><rect x="43" y="33" width="2" height="1" fill="#081527"/><rect x="6" y="34" width="2" height="1" fill="#081527"/><rect x="8" y="34" width="3" height="1" fill="#3c110c"/><rect x="11" y="34" width="6" height="1" fill="#5f1c13"/><rect x="17" y="34" width="3" height="1" fill="#422c00"/><rect x="20" y="34" width="1" height="1" fill="#6b4700"/><rect x="21" y="34" width="6" height="1" fill="#422c00"/><rect x="27" y="34" width="4" height="1" fill="#5f1c13"/><rect x="31" y="34" width="1" height="1" fill="#211600"/><rect x="32" y="34" width="5" height="1" fill="#996600"/><rect x="37" y="34" width="1" height="1" fill="#211600"/><rect x="38" y="34" width="4" height="1" fill="#996600"/><rect x="42" y="34" width="1" height="1" fill="#211600"/><rect x="43" y="34" width="2" height="1" fill="#081527"/><rect x="7" y="35" width="2" height="1" fill="#081527"/><rect x="9" y="35" width="3" height="1" fill="#3c110c"/><rect x="12" y="35" width="7" height="1" fill="#5f1c13"/><rect x="19" y="35" width="6" height="1" fill="#422c00"/><rect x="25" y="35" width="5" height="1" fill="#5f1c13"/><rect x="30" y="35" width="2" height="1" fill="#3c110c"/><rect x="32" y="35" width="1" height="1" fill="#211600"/><rect x="33" y="35" width="8" height="1" fill="#6b4700"/><rect x="41" y="35" width="1" height="1" fill="#211600"/><rect x="42" y="35" width="2" height="1" fill="#081527"/><rect x="6" y="36" width="3" height="1" fill="#081527"/><rect x="9" y="36" width="4" height="1" fill="#3c110c"/><rect x="13" y="36" width="8" height="1" fill="#5f1c13"/><rect x="21" y="36" width="1" height="1" fill="#422c00"/><rect x="22" y="36" width="7" height="1" fill="#5f1c13"/><rect x="29" y="36" width="2" height="1" fill="#3c110c"/><rect x="31" y="36" width="2" height="1" fill="#996600"/><rect x="33" y="36" width="4" height="1" fill="#211600"/><rect x="37" y="36" width="1" height="1" fill="#6b4700"/><rect x="38" y="36" width="3" height="1" fill="#211600"/><rect x="41" y="36" width="2" height="1" fill="#996600"/><rect x="43" y="36" width="2" height="1" fill="#081527"/><rect x="5" y="37" width="4" height="1" fill="#081527"/><rect x="9" y="37" width="1" height="1" fill="#c98600"/><rect x="10" y="37" width="8" height="1" fill="#3c110c"/><rect x="18" y="37" width="11" height="1" fill="#5f1c13"/><rect x="29" y="37" width="2" height="1" fill="#3c110c"/><rect x="31" y="37" width="1" height="1" fill="#211600"/><rect x="32" y="37" width="5" height="1" fill="#996600"/><rect x="37" y="37" width="1" height="1" fill="#211600"/><rect x="38" y="37" width="4" height="1" fill="#996600"/><rect x="42" y="37" width="1" height="1" fill="#211600"/><rect x="43" y="37" width="2" height="1" fill="#081527"/><rect x="4" y="38" width="2" height="1" fill="#081527"/><rect x="6" y="38" width="2" height="1" fill="#c98600"/><rect x="8" y="38" width="1" height="1" fill="#dc9508"/><rect x="9" y="38" width="5" height="1" fill="#c98600"/><rect x="14" y="38" width="10" height="1" fill="#3c110c"/><rect x="24" y="38" width="4" height="1" fill="#5f1c13"/><rect x="28" y="38" width="4" height="1" fill="#3c110c"/><rect x="32" y="38" width="1" height="1" fill="#211600"/><rect x="33" y="38" width="8" height="1" fill="#6b4700"/><rect x="41" y="38" width="1" height="1" fill="#211600"/><rect x="42" y="38" width="2" height="1" fill="#081527"/><rect x="3" y="39" width="2" height="1" fill="#081527"/><rect x="5" y="39" width="1" height="1" fill="#211600"/><rect x="6" y="39" width="8" height="1" fill="#996600"/><rect x="14" y="39" width="1" height="1" fill="#211600"/><rect x="15" y="39" width="17" height="1" fill="#3c110c"/><rect x="32" y="39" width="5" height="1" fill="#081527"/><rect x="37" y="39" width="1" height="1" fill="#211600"/><rect x="38" y="39" width="5" height="1" fill="#081527"/><rect x="4" y="40" width="2" height="1" fill="#081527"/><rect x="6" y="40" width="3" height="1" fill="#211600"/><rect x="9" y="40" width="1" height="1" fill="#6b4700"/><rect x="10" y="40" width="4" height="1" fill="#211600"/><rect x="14" y="40" width="8" height="1" fill="#081527"/><rect x="22" y="40" width="9" height="1" fill="#3c110c"/><rect x="31" y="40" width="11" height="1" fill="#081527"/><rect x="5" y="41" width="4" height="1" fill="#081527"/><rect x="9" y="41" width="1" height="1" fill="#211600"/><rect x="10" y="41" width="22" height="1" fill="#081527"/><rect x="37" y="41" width="1" height="1" fill="#081527"/><rect x="6" y="42" width="8" height="1" fill="#081527"/><rect x="22" y="42" width="9" height="1" fill="#081527"/><rect x="9" y="43" width="1" height="1" fill="#081527"/></svg>
