<svg xmlns="http://www.w3.org/2000/svg" viewBox="0 0 48 48" shape-rendering="crispEdges"><rect x="14" y="3" width="5" height="1" fill="#081527"/><rect x="13" y="4" width="9" height="1" fill="#081527"/><rect x="12" y="5" width="2" height="1" fill="#081527"/><rect x="14" y="5" width="5" height="1" fill="#221109"/><rect x="19" y="5" width="4" height="1" fill="#081527"/><rect x="11" y="6" width="2" height="1" fill="#081527"/><rect x="13" y="6" width="9" height="1" fill="#221109"/><rect x="22" y="6" width="2" height="1" fill="#081527"/><rect x="10" y="7" width="2" height="1" fill="#081527"/><rect x="12" y="7" width="11" height="1" fill="#221109"/><rect x="23" y="7" width="2" height="1" fill="#081527"/><rect x="9" y="8" width="2" height="1" fill="#081527"/><rect x="11" y="8" width="13" height="1" fill="#221109"/><rect x="24" y="8" width="2" height="1" fill="#081527"/><rect x="8" y="9" width="2" height="1" fill="#081527"/><rect x="10" y="9" width="15" height="1" fill="#221109"/><rect x="25" y="9" width="2" height="1" fill="#081527"/><rect x="8" y="10" width="2" height="1" fill="#081527"/><rect x="10" y="10" width="7" height="1" fill="#221109"/><rect x="17" y="10" width="3" height="1" fill="#9e6643"/><rect x="20" y="10" width="6" height="1" fill="#221109"/><rect x="26" y="10" width="2" height="1" fill="#081527"/><rect x="8" y="11" width="2" height="1" fill="#081527"/><rect x="10" y="11" width="6" height="1" fill="#221109"/><rect x="16" y="11" width="5" height="1" fill="#9e6643"/><rect x="21" y="11" width="4" height="1" fill="#221109"/><rect x="25" y="11" width="2" height="1" fill="#081527"/><rect x="9" y="12" width="2" height="1" fill="#081527"/><rect x="11" y="12" width="3" height="1" fill="#221109"/><rect x="14" y="12" width="8" height="1" fill="#9e6643"/><rect x="22" y="12" width="1" height="1" fill="#221109"/><rect x="23" y="12" width="2" height="1" fill="#9e6643"/><rect x="25" y="12" width="2" height="1" fill="#081527"/><rect x="8" y="13" width="2" height="1" fill="#081527"/><rect x="10" y="13" width="3" height="1" fill="#c17d52"/><rect x="13" y="13" width="12" height="1" fill="#9e6643"/><rect x="25" y="13" width="2" height="1" fill="#081527"/><rect x="8" y="14" width="2" height="1" fill="#081527"/><rect x="10" y="14" width="3" height="1" fill="#c17d52"/><rect x="13" y="14" width="3" height="1" fill="#081527"/><rect x="16" y="14" width="5" height="1" fill="#9e6643"/><rect x="21" y="14" width="3" height="1" fill="#081527"/><rect x="24" y="14" width="1" height="1" fill="#9e6643"/><rect x="25" y="14" width="2" height="1" fill="#081527"/><rect x="8" y="15" width="2" height="1" fill="#081527"/><rect x="10" y="15" width="3" height="1" fill="#c17d52"/><rect x="13" y="15" width="3" height="1" fill="#081527"/><rect x="16" y="15" width="5" height="1" fill="#9e6643"/><rect x="21" y="15" width="3" height="1" fill="#081527"/><rect x="24" y="15" width="1" height="1" fill="#9e6643"/><rect x="25" y="15" width="2" height="1" fill="#081527"/><rect x="8" y="16" width="2" height="1" fill="#081527"/><rect x="10" y="16" width="3" height="1" fill="#c17d52"/><rect x="13" y="16" width="3" height="1" fill="#081527"/><rect x="16" y="16" width="5" height="1" fill="#9e6643"/><rect x="21" y="16" width="5" height="1" fill="#081527"/><rect x="8" y="17" width="2" height="1" fill="#081527"/><rect x="10" y="17" width="3" height="1" fill="#c17d52"/><rect x="13" y="17" width="11" height="1" fill="#9e6643"/><rect x="24" y="17" width="2" height="1" fill="#081527"/><rect x="31" y="17" width="1" height="1" fill="#081527"/><rect x="9" y="18" width="2" height="1" fill="#081527"/><rect x="11" y="18" width="7" height="1" fill="#9e6643"/><rect x="18" y="18" width="2" height="1" fill="#4f3322"/><rect x="20" y="18" width="4" height="1" fill="#9e6643"/><rect x="24" y="18" width="2" height="1" fill="#081527"/><rect x="30" y="18" width="3" height="1" fill="#081527"/><rect x="40" y="18" width="1" height="1" fill="#081527"/><rect x="10" y="19" width="2" height="1" fill="#081527"/><rect x="12" y="19" width="5" height="1" fill="#9e6643"/><rect x="17" y="19" width="4" height="1" fill="#4f3322"/><rect x="21" y="19" width="3" height="1" fill="#9e6643"/><rect x="24" y="19" width="2" height="1" fill="#081527"/><rect x="29" y="19" width="2" height="1" fill="#081527"/><rect x="31" y="19" width="1" height="1" fill="#763a1a"/><rect x="32" y="19" width="2" height="1" fill="#081527"/><rect x="39" y="19" width="3" height="1" fill="#081527"/><rect x="10" y="20" width="2" height="1" fill="#081527"/><rect x="12" y="20" width="11" height="1" fill="#9e6643"/><rect x="23" y="20" width="2" height="1" fill="#081527"/><rect x="28" y="20" width="2" height="1" fill="#081527"/><rect x="30" y="20" width="2" height="1" fill="#763a1a"/><rect x="32" y="20" width="2" height="1" fill="#081527"/><rect x="38" y="20" width="2" height="1" fill="#081527"/><rect x="40" y="20" width="1" height="1" fill="#763a1a"/><rect x="41" y="20" width="2" height="1" fill="#081527"/><rect x="10" y="21" width="3" height="1" fill="#081527"/><rect x="13" y="21" width="3" height="1" fill="#9e6643"/><rect x="16" y="21" width="4" height="1" fill="#754b32"/><rect x="20" y="21" width="2" height="1" fill="#9e6643"/><rect x="22" y="21" width="2" height="1" fill="#081527"/><rect x="28" y="21" width="2" height="1" fill="#081527"/><rect x="30" y="21" width="1" height="1" fill="#763a1a"/><rect x="31" y="21" width="1" height="1" fill="#3c110c"/><rect x="32" y="21" width="1" height="1" fill="#763a1a"/><rect x="33" y="21" width="2" height="1" fill="#081527"/><rect x="37" y="21" width="2" height="1" fill="#081527"/><rect x="39" y="21" width="2" height="1" fill="#763a1a"/><rect x="41" y="21" width="2" height="1" fill="#081527"/><rect x="9" y="22" width="7" height="1" fill="#081527"/><rect x="16" y="22" width="4" height="1" fill="#754b32"/><rect x="20" y="22" width="1" height="1" fill="#9e6643"/><rect x="21" y="22" width="2" height="1" fill="#081527"/><rect x="28" y="22" width="2" height="1" fill="#081527"/><rect x="30" y="22" width="2" height="1" fill="#3c110c"/><rect x="32" y="22" width="2" height="1" fill="#763a1a"/><rect x="34" y="22" width="5" height="1" fill="#081527"/><rect x="39" y="22" width="1" height="1" fill="#3c110c"/><rect x="40" y="22" width="1" height="1" fill="#763a1a"/><rect x="41" y="22" width="2" height="1" fill="#081527"/><rect x="8" y="23" width="2" height="1" fill="#081527"/><rect x="10" y="23" width="9" height="1" fill="#092a4f"/><rect x="19" y="23" width="1" height="1" fill="#9e6643"/><rect x="20" y="23" width="1" height="1" fill="#092a4f"/><rect x="21" y="23" width="2" height="1" fill="#081527"/><rect x="28" y="23" width="2" height="1" fill="#081527"/><rect x="30" y="23" width="2" height="1" fill="#3c110c"/><rect x="32" y="23" width="2" height="1" fill="#763a1a"/><rect x="34" y="23" width="4" height="1" fill="#081527"/><rect x="38" y="23" width="1" height="1" fill="#763a1a"/><rect x="39" y="23" width="1" height="1" fill="#3c110c"/><rect x="40" y="23" width="1" height="1" fill="#763a1a"/><rect x="41" y="23" width="2" height="1" fill="#081527"/><rect x="7" y="24" width="2" height="1" fill="#081527"/><rect x="9" y="24" width="5" height="1" fill="#104784"/><rect x="14" y="24" width="8" height="1" fill="#092a4f"/><rect x="22" y="24" width="2" height="1" fill="#081527"/><rect x="27" y="24" width="2" height="1" fill="#081527"/><rect x="29" y="24" width="2" height="1" fill="#763a1a"/><rect x="31" y="24" width="2" height="1" fill="#3c110c"/><rect x="33" y="24" width="2" height="1" fill="#763a1a"/><rect x="35" y="24" width="1" height="1" fill="#081527"/><rect x="36" y="24" width="3" height="1" fill="#763a1a"/><rect x="39" y="24" width="1" height="1" fill="#3c110c"/><rect x="40" y="24" width="1" height="1" fill="#763a1a"/><rect x="41" y="24" width="2" height="1" fill="#081527"/><rect x="7" y="25" width="2" height="1" fill="#081527"/><rect x="9" y="25" width="5" height="1" fill="#104784"/><rect x="14" y="25" width="9" height="1" fill="#092a4f"/><rect x="23" y="25" width="2" height="1" fill="#081527"/><rect x="27" y="25" width="2" height="1" fill="#081527"/><rect x="29" y="25" width="10" height="1" fill="#763a1a"/><rect x="39" y="25" width="1" height="1" fill="#3c110c"/><rect x="40" y="25" width="1" height="1" fill="#763a1a"/><rect x="41" y="25" width="2" height="1" fill="#081527"/><rect x="6" y="26" width="2" height="1" fill="#081527"/><rect x="8" y="26" width="1" height="1" fill="#092a4f"/><rect x="9" y="26" width="5" height="1" fill="#104784"/><rect x="14" y="26" width="10" height="1" fill="#092a4f"/><rect x="24" y="26" width="5" height="1" fill="#081527"/><rect x="29" y="26" width="1" height="1" fill="#763a1a"/><rect x="30" y="26" width="3" height="1" fill="#081527"/><rect x="33" y="26" width="5" height="1" fill="#763a1a"/><rect x="38" y="26" width="2" height="1" fill="#081527"/><rect x="40" y="26" width="1" height="1" fill="#763a1a"/><rect x="41" y="26" width="2" height="1" fill="#081527"/><rect x="5" y="27" width="2" height="1" fill="#081527"/><rect x="7" y="27" width="2" height="1" fill="#092a4f"/><rect x="9" y="27" width="5" height="1" fill="#104784"/><rect x="14" y="27" width="11" height="1" fill="#092a4f"/><rect x="25" y="27" width="8" height="1" fill="#081527"/><rect x="33" y="27" width="5" height="1" fill="#763a1a"/><rect x="38" y="27" width="2" height="1" fill="#081527"/><rect x="40" y="27" width="1" height="1" fill="#763a1a"/><rect x="41" y="27" width="2" height="1" fill="#081527"/><rect x="4" y="28" width="2" height="1" fill="#081527"/><rect x="6" y="28" width="1" height="1" fill="#092a4f"/><rect x="7" y="28" width="3" height="1" fill="#9e6643"/><rect x="10" y="28" width="4" height="1" fill="#104784"/><rect x="14" y="28" width="9" height="1" fill="#092a4f"/><rect x="23" y="28" width="4" height="1" fill="#754b32"/><rect x="27" y="28" width="6" height="1" fill="#081527"/><rect x="33" y="28" width="4" height="1" fill="#763a1a"/><rect x="37" y="28" width="1" height="1" fill="#b8b8b8"/><rect x="38" y="28" width="2" height="1" fill="#081527"/><rect x="40" y="28" width="1" height="1" fill="#763a1a"/><rect x="41" y="28" width="2" height="1" fill="#081527"/><rect x="4" y="29" width="2" height="1" fill="#081527"/><rect x="6" y="29" width="1" height="1" fill="#092a4f"/><rect x="7" y="29" width="3" height="1" fill="#9e6643"/><rect x="10" y="29" width="4" height="1" fill="#104784"/><rect x="14" y="29" width="9" height="1" fill="#092a4f"/><rect x="23" y="29" width="4" height="1" fill="#754b32"/><rect x="27" y="29" width="2" height="1" fill="#081527"/><rect x="29" y="29" width="3" height="1" fill="#763a1a"/><rect x="32" y="29" width="2" height="1" fill="#b8b8b8"/><rect x="34" y="29" width="3" height="1" fill="#081527"/><rect x="37" y="29" width="2" height="1" fill="#763a1a"/><rect x="39" y="29" width="2" height="1" fill="#85421e"/><rect x="41" y="29" width="2" height="1" fill="#081527"/><rect x="4" y="30" width="2" height="1" fill="#081527"/><rect x="6" y="30" width="1" height="1" fill="#092a4f"/><rect x="7" y="30" width="3" height="1" fill="#9e6643"/><rect x="10" y="30" width="4" height="1" fill="#104784"/><rect x="14" y="30" width="9" height="1" fill="#092a4f"/><rect x="23" y="30" width="4" height="1" fill="#754b32"/><rect x="27" y="30" width="6" height="1" fill="#763a1a"/><rect x="33" y="30" width="1" height="1" fill="#b8b8b8"/><rect x="34" y="30" width="3" height="1" fill="#081527"/><rect x="37" y="30" width="2" height="1" fill="#763a1a"/><rect x="39" y="30" width="3" height="1" fill="#85421e"/><rect x="42" y="30" width="2" height="1" fill="#081527"/><rect x="5" y="31" width="2" height="1" fill="#081527"/><rect x="7" y="31" width="3" height="1" fill="#9e6643"/><rect x="10" y="31" width="4" height="1" fill="#104784"/><rect x="14" y="31" width="9" height="1" fill="#092a4f"/><rect x="23" y="31" width="4" height="1" fill="#754b32"/><rect x="27" y="31" width="6" height="1" fill="#763a1a"/><rect x="33" y="31" width="1" height="1" fill="#b8b8b8"/><rect x="34" y="31" width="3" height="1" fill="#081527"/><rect x="37" y="31" width="1" height="1" fill="#763a1a"/><rect x="38" y="31" width="4" height="1" fill="#85421e"/><rect x="42" y="31" width="1" height="1" fill="#b8b8b8"/><rect x="43" y="31" width="2" height="1" fill="#081527"/><rect x="5" y="32" width="2" height="1" fill="#081527"/><rect x="7" y="32" width="3" height="1" fill="#9e6643"/><rect x="10" y="32" width="4" height="1" fill="#104784"/><rect x="14" y="32" width="9" height="1" fill="#092a4f"/><rect x="23" y="32" width="4" height="1" fill="#754b32"/><rect x="27" y="32" width="7" height="1" fill="#763a1a"/><rect x="34" y="32" width="1" height="1" fill="#b8b8b8"/><rect x="35" y="32" width="1" height="1" fill="#763a1a"/><rect x="36" y="32" width="4" height="1" fill="#85421e"/><rect x="40" y="32" width="3" height="1" fill="#b8b8b8"/><rect x="43" y="32" width="2" height="1" fill="#081527"/><rect x="5" y="33" width="2" height="1" fill="#081527"/><rect x="7" y="33" width="2" height="1" fill="#104784"/><rect x="9" y="33" width="6" height="1" fill="#221109"/><rect x="15" y="33" width="4" height="1" fill="#996600"/><rect x="19" y="33" width="5" height="1" fill="#221109"/><rect x="24" y="33" width="2" height="1" fill="#092a4f"/><rect x="26" y="33" width="10" height="1" fill="#763a1a"/><rect x="36" y="33" width="3" height="1" fill="#85421e"/><rect x="39" y="33" width="4" height="1" fill="#b8b8b8"/><rect x="43" y="33" width="2" height="1" fill="#081527"/><rect x="5" y="34" width="2" height="1" fill="#081527"/><rect x="7" y="34" width="2" height="1" fill="#092a4f"/><rect x="9" y="34" width="6" height="1" fill="#221109"/><rect x="15" y="34" width="4" height="1" fill="#996600"/><rect x="19" y="34" width="5" height="1" fill="#221109"/><rect x="24" y="34" width="2" height="1" fill="#092a4f"/><rect x="26" y="34" width="10" height="1" fill="#763a1a"/><rect x="36" y="34" width="3" height="1" fill="#85421e"/><rect x="39" y="34" width="4" height="1" fill="#b8b8b8"/><rect x="43" y="34" width="2" height="1" fill="#081527"/><rect x="5" y="35" width="2" height="1" fill="#081527"/><rect x="7" y="35" width="2" height="1" fill="#092a4f"/><rect x="9" y="35" width="6" height="1" fill="#221109"/><rect x="15" y="35" width="4" height="1" fill="#996600"/><rect x="19" y="35" width="5" height="1" fill="#221109"/><rect x="24" y="35" width="1" height="1" fill="#092a4f"/><rect x="25" y="35" width="1" height="1" fill="#081527"/><rect x="26" y="35" width="11" height="1" fill="#763a1a"/><rect x="37" y="35" width="2" height="1" fill="#85421e"/><rect x="39" y="35" width="4" height="1" fill="#b8b8b8"/><rect x="43" y="35" width="2" height="1" fill="#081527"/><rect x="6" y="36" width="2" height="1" fill="#081527"/><rect x="8" y="36" width="2" height="1" fill="#092a4f"/><rect x="10" y="36" width="6" height="1" fill="#221109"/><rect x="16" y="36" width="2" height="1" fill="#092a4f"/><rect x="18" y="36" width="5" height="1" fill="#361c0e"/><rect x="23" y="36" width="2" height="1" fill="#092a4f"/><rect x="25" y="36" width="1" height="1" fill="#081527"/><rect x="26" y="36" width="11" height="1" fill="#763a1a"/><rect x="37" y="36" width="3" height="1" fill="#85421e"/><rect x="40" y="36" width="2" height="1" fill="#b8b8b8"/><rect x="42" y="36" width="2" height="1" fill="#081527"/><rect x="6" y="37" width="2" height="1" fill="#081527"/><rect x="8" y="37" width="2" height="1" fill="#092a4f"/><rect x="10" y="37" width="6" height="1" fill="#221109"/><rect x="16" y="37" width="2" height="1" fill="#092a4f"/><rect x="18" y="37" width="5" height="1" fill="#361c0e"/><rect x="23" y="37" width="2" height="1" fill="#092a4f"/><rect x="25" y="37" width="1" height="1" fill="#081527"/><rect x="26" y="37" width="11" height="1" fill="#763a1a"/><rect x="37" y="37" width="2" height="1" fill="#85421e"/><rect x="39" y="37" width="1" height="1" fill="#763a1a"/><rect x="40" y="37" width="1" height="1" fill="#b8b8b8"/><rect x="41" y="37" width="2" height="1" fill="#081527"/><rect x="7" y="38" width="3" height="1" fill="#081527"/><rect x="10" y="38" width="6" height="1" fill="#221109"/><rect x="16" y="38" width="2" height="1" fill="#081527"/><rect x="18" y="38" width="5" height="1" fill="#361c0e"/><rect x="23" y="38" width="4" height="1" fill="#081527"/><rect x="27" y="38" width="10" height="1" fill="#763a1a"/><rect x="37" y="38" width="1" height="1" fill="#85421e"/><rect x="38" y="38" width="3" height="1" fill="#763a1a"/><rect x="41" y="38" width="2" height="1" fill="#081527"/><rect x="8" y="39" width="2" height="1" fill="#081527"/><rect x="10" y="39" width="6" height="1" fill="#221109"/><rect x="16" y="39" width="2" height="1" fill="#081527"/><rect x="18" y="39" width="5" height="1" fill="#361c0e"/><rect x="23" y="39" width="6" height="1" fill="#081527"/><rect x="29" y="39" width="2" height="1" fill="#32190b"/><rect x="31" y="39" width="7" height="1" fill="#763a1a"/><rect x="38" y="39" width="2" height="1" fill="#32190b"/><rect x="40" y="39" width="2" height="1" fill="#081527"/><rect x="7" y="40" width="2" height="1" fill="#081527"/><rect x="9" y="40" width="8" height="1" fill="#14181b"/><rect x="17" y="40" width="1" height="1" fill="#081527"/><rect x="18" y="40" width="8" height="1" fill="#14181b"/><rect x="26" y="40" width="3" height="1" fill="#081527"/><rect x="29" y="40" width="2" height="1" fill="#32190b"/><rect x="31" y="40" width="1" height="1" fill="#763a1a"/><rect x="32" y="40" width="6" height="1" fill="#081527"/><rect x="38" y="40" width="2" height="1" fill="#32190b"/><rect x="40" y="40" width="2" height="1" fill="#081527"/><rect x="7" y="41" width="2" height="1" fill="#081527"/><rect x="9" y="41" width="8" height="1" fill="#14181b"/><rect x="17" y="41" width="1" height="1" fill="#081527"/><rect x="18" y="41" width="8" height="1" fill="#14181b"/><rect x="26" y="41" width="3" height="1" fill="#081527"/><rect x="29" y="41" width="2" height="1" fill="#32190b"/><rect x="31" y="41" width="7" height="1" fill="#081527"/><rect x="38" y="41" width="2" height="1" fill="#32190b"/><rect x="40" y="41" width="2" height="1" fill="#081527"/><rect x="7" y="42" width="2" height="1" fill="#081527"/><rect x="9" y="42" width="8" height="1" fill="#14181b"/><rect x="17" y="42" width="1" height="1" fill="#081527"/><rect x="18" y="42" width="8" height="1" fill="#14181b"/><rect x="26" y="42" width="3" height="1" fill="#081527"/><rect x="29" y="42" width="2" height="1" fill="#32190b"/><rect x="31" y="42" width="2" height="1" fill="#081527"/><rect x="36" y="42" width="2" height="1" fill="#081527"/><rect x="38" y="42" width="2" height="1" fill="#32190b"/><rect x="40" y="42" width="2" height="1" fill="#081527"/><rect x="8" y="43" width="19" height="1" fill="#081527"/><rect x="28" y="43" width="4" height="1" fill="#081527"/><rect x="37" y="43" width="4" height="1" fill="#081527"/><rect x="9" y="44" width="8" height="1" fill="#081527"/><rect x="18" y="44" width="8" height="1" fill="#081527"/><rect x="29" y="44" width="2" height="1" fill="#081527"/><rect x="38" y="44" width="2" height="1" fill="#081527"/></svg>
