<svg xmlns="http://www.w3.org/2000/svg" viewBox="0 0 48 48" shape-rendering="crispEdges"><rect x="24" y="2" width="1" height="1" fill="#081527"/><rect x="30" y="2" width="1" height="1" fill="#081527"/><rect x="7" y="3" width="1" height="1" fill="#081527"/><rect x="19" y="3" width="13" height="1" fill="#081527"/><rect x="6" y="4" width="3" height="1" fill="#081527"/><rect x="17" y="4" width="7" height="1" fill="#081527"/><rect x="24" y="4" width="1" height="1" fill="#996600"/><rect x="25" y="4" width="5" height="1" fill="#081527"/><rect x="30" y="4" width="1" height="1" fill="#c98600"/><rect x="31" y="4" width="2" height="1" fill="#081527"/><rect x="5" y="5" width="2" height="1" fill="#081527"/><rect x="7" y="5" width="1" height="1" fill="#b37700"/><rect x="8" y="5" width="2" height="1" fill="#081527"/><rect x="15" y="5" width="4" height="1" fill="#081527"/><rect x="19" y="5" width="5" height="1" fill="#422c00"/><rect x="24" y="5" width="1" height="1" fill="#996600"/><rect x="25" y="5" width="6" height="1" fill="#422c00"/><rect x="31" y="5" width="3" height="1" fill="#081527"/><rect x="4" y="6" width="3" height="1" fill="#081527"/><rect x="7" y="6" width="1" height="1" fill="#b37700"/><rect x="8" y="6" width="2" height="1" fill="#081527"/><rect x="13" y="6" width="4" height="1" fill="#081527"/><rect x="17" y="6" width="7" height="1" fill="#422c00"/><rect x="24" y="6" width="1" height="1" fill="#996600"/><rect x="25" y="6" width="7" height="1" fill="#422c00"/><rect x="32" y="6" width="4" height="1" fill="#081527"/><rect x="3" y="7" width="2" height="1" fill="#081527"/><rect x="5" y="7" width="2" height="1" fill="#996600"/><rect x="7" y="7" width="1" height="1" fill="#dc9508"/><rect x="8" y="7" width="1" height="1" fill="#996600"/><rect x="9" y="7" width="6" height="1" fill="#081527"/><rect x="15" y="7" width="4" height="1" fill="#422c00"/><rect x="19" y="7" width="5" height="1" fill="#081527"/><rect x="24" y="7" width="1" height="1" fill="#996600"/><rect x="25" y="7" width="4" height="1" fill="#081527"/><rect x="29" y="7" width="5" height="1" fill="#422c00"/><rect x="34" y="7" width="4" height="1" fill="#081527"/><rect x="4" y="8" width="3" height="1" fill="#081527"/><rect x="7" y="8" width="1" height="1" fill="#b37700"/><rect x="8" y="8" width="5" height="1" fill="#081527"/><rect x="13" y="8" width="4" height="1" fill="#422c00"/><rect x="17" y="8" width="7" height="1" fill="#081527"/><rect x="24" y="8" width="1" height="1" fill="#996600"/><rect x="25" y="8" width="4" height="1" fill="#081527"/><rect x="29" y="8" width="1" height="1" fill="#422c00"/><rect x="30" y="8" width="2" height="1" fill="#081527"/><rect x="32" y="8" width="4" height="1" fill="#422c00"/><rect x="36" y="8" width="3" height="1" fill="#081527"/><rect x="5" y="9" width="6" height="1" fill="#081527"/><rect x="11" y="9" width="4" height="1" fill="#422c00"/><rect x="15" y="9" width="4" height="1" fill="#081527"/><rect x="19" y="9" width="1" height="1" fill="#422c00"/><rect x="20" y="9" width="4" height="1" fill="#081527"/><rect x="24" y="9" width="1" height="1" fill="#996600"/><rect x="25" y="9" width="5" height="1" fill="#081527"/><rect x="30" y="9" width="4" height="1" fill="#6f8696"/><rect x="34" y="9" width="1" height="1" fill="#14181b"/><rect x="35" y="9" width="3" height="1" fill="#422c00"/><rect x="38" y="9" width="2" height="1" fill="#081527"/><rect x="7" y="10" width="3" height="1" fill="#081527"/><rect x="10" y="10" width="3" height="1" fill="#422c00"/><rect x="13" y="10" width="2" height="1" fill="#081527"/><rect x="15" y="10" width="1" height="1" fill="#422c00"/><rect x="16" y="10" width="3" height="1" fill="#081527"/><rect x="19" y="10" width="1" height="1" fill="#422c00"/><rect x="20" y="10" width="4" height="1" fill="#081527"/><rect x="24" y="10" width="1" height="1" fill="#996600"/><rect x="25" y="10" width="3" height="1" fill="#081527"/><rect x="28" y="10" width="7" height="1" fill="#6f8696"/><rect x="35" y="10" width="1" height="1" fill="#14181b"/><rect x="36" y="10" width="3" height="1" fill="#422c00"/><rect x="39" y="10" width="3" height="1" fill="#081527"/><rect x="6" y="11" width="2" height="1" fill="#081527"/><rect x="8" y="11" width="1" height="1" fill="#c98600"/><rect x="9" y="11" width="3" height="1" fill="#422c00"/><rect x="12" y="11" width="1" height="1" fill="#081527"/><rect x="13" y="11" width="4" height="1" fill="#6f8696"/><rect x="17" y="11" width="1" height="1" fill="#14181b"/><rect x="18" y="11" width="1" height="1" fill="#081527"/><rect x="19" y="11" width="1" height="1" fill="#422c00"/><rect x="20" y="11" width="4" height="1" fill="#081527"/><rect x="24" y="11" width="1" height="1" fill="#996600"/><rect x="25" y="11" width="2" height="1" fill="#081527"/><rect x="27" y="11" width="9" height="1" fill="#6f8696"/><rect x="36" y="11" width="1" height="1" fill="#14181b"/><rect x="37" y="11" width="2" height="1" fill="#422c00"/><rect x="39" y="11" width="4" height="1" fill="#081527"/><rect x="7" y="12" width="2" height="1" fill="#081527"/><rect x="9" y="12" width="1" height="1" fill="#996600"/><rect x="10" y="12" width="8" height="1" fill="#6f8696"/><rect x="18" y="12" width="1" height="1" fill="#14181b"/><rect x="19" y="12" width="1" height="1" fill="#081527"/><rect x="20" y="12" width="1" height="1" fill="#422c00"/><rect x="21" y="12" width="3" height="1" fill="#081527"/><rect x="24" y="12" width="1" height="1" fill="#996600"/><rect x="25" y="12" width="1" height="1" fill="#081527"/><rect x="26" y="12" width="11" height="1" fill="#6f8696"/><rect x="37" y="12" width="1" height="1" fill="#14181b"/><rect x="38" y="12" width="1" height="1" fill="#422c00"/><rect x="39" y="12" width="2" height="1" fill="#081527"/><rect x="41" y="12" width="1" height="1" fill="#b37700"/><rect x="42" y="12" width="2" height="1" fill="#081527"/><rect x="7" y="13" width="2" height="1" fill="#081527"/><rect x="9" y="13" width="10" height="1" fill="#6f8696"/><rect x="19" y="13" width="1" height="1" fill="#081527"/><rect x="20" y="13" width="1" height="1" fill="#422c00"/><rect x="21" y="13" width="3" height="1" fill="#081527"/><rect x="24" y="13" width="1" height="1" fill="#996600"/><rect x="25" y="13" width="13" height="1" fill="#6f8696"/><rect x="38" y="13" width="1" height="1" fill="#14181b"/><rect x="39" y="13" width="1" height="1" fill="#422c00"/><rect x="40" y="13" width="1" height="1" fill="#081527"/><rect x="41" y="13" width="1" height="1" fill="#b37700"/><rect x="42" y="13" width="3" height="1" fill="#081527"/><rect x="7" y="14" width="2" height="1" fill="#081527"/><rect x="9" y="14" width="10" height="1" fill="#6f8696"/><rect x="19" y="14" width="1" height="1" fill="#14181b"/><rect x="20" y="14" width="4" height="1" fill="#081527"/><rect x="24" y="14" width="1" height="1" fill="#996600"/><rect x="25" y="14" width="1" height="1" fill="#6f8696"/><rect x="26" y="14" width="3" height="1" fill="#262e34"/><rect x="29" y="14" width="9" height="1" fill="#6f8696"/><rect x="38" y="14" width="1" height="1" fill="#14181b"/><rect x="39" y="14" width="2" height="1" fill="#996600"/><rect x="41" y="14" width="1" height="1" fill="#dc9508"/><rect x="42" y="14" width="2" height="1" fill="#996600"/><rect x="44" y="14" width="2" height="1" fill="#081527"/><rect x="6" y="15" width="2" height="1" fill="#081527"/><rect x="8" y="15" width="12" height="1" fill="#6f8696"/><rect x="20" y="15" width="1" height="1" fill="#14181b"/><rect x="21" y="15" width="4" height="1" fill="#081527"/><rect x="25" y="15" width="1" height="1" fill="#6f8696"/><rect x="26" y="15" width="3" height="1" fill="#262e34"/><rect x="29" y="15" width="9" height="1" fill="#6f8696"/><rect x="38" y="15" width="1" height="1" fill="#14181b"/><rect x="39" y="15" width="2" height="1" fill="#422c00"/><rect x="41" y="15" width="1" height="1" fill="#b37700"/><rect x="42" y="15" width="3" height="1" fill="#081527"/><rect x="6" y="16" width="2" height="1" fill="#081527"/><rect x="8" y="16" width="1" height="1" fill="#6f8696"/><rect x="9" y="16" width="2" height="1" fill="#262e34"/><rect x="11" y="16" width="9" height="1" fill="#6f8696"/><rect x="20" y="16" width="2" height="1" fill="#14181b"/><rect x="22" y="16" width="3" height="1" fill="#081527"/><rect x="25" y="16" width="1" height="1" fill="#6f8696"/><rect x="26" y="16" width="3" height="1" fill="#262e34"/><rect x="29" y="16" width="9" height="1" fill="#6f8696"/><rect x="38" y="16" width="1" height="1" fill="#14181b"/><rect x="39" y="16" width="2" height="1" fill="#422c00"/><rect x="41" y="16" width="1" height="1" fill="#b37700"/><rect x="42" y="16" width="2" height="1" fill="#081527"/><rect x="5" y="17" width="2" height="1" fill="#081527"/><rect x="7" y="17" width="1" height="1" fill="#422c00"/><rect x="8" y="17" width="1" height="1" fill="#6f8696"/><rect x="9" y="17" width="2" height="1" fill="#262e34"/><rect x="11" y="17" width="9" height="1" fill="#6f8696"/><rect x="20" y="17" width="2" height="1" fill="#14181b"/><rect x="22" y="17" width="3" height="1" fill="#081527"/><rect x="25" y="17" width="1" height="1" fill="#6f8696"/><rect x="26" y="17" width="3" height="1" fill="#262e34"/><rect x="29" y="17" width="7" height="1" fill="#14181b"/><rect x="36" y="17" width="2" height="1" fill="#6f8696"/><rect x="38" y="17" width="1" height="1" fill="#14181b"/><rect x="39" y="17" width="3" height="1" fill="#422c00"/><rect x="42" y="17" width="2" height="1" fill="#081527"/><rect x="4" y="18" width="2" height="1" fill="#081527"/><rect x="6" y="18" width="2" height="1" fill="#422c00"/><rect x="8" y="18" width="1" height="1" fill="#6f8696"/><rect x="9" y="18" width="2" height="1" fill="#262e34"/><rect x="11" y="18" width="9" height="1" fill="#6f8696"/><rect x="20" y="18" width="2" height="1" fill="#14181b"/><rect x="22" y="18" width="3" height="1" fill="#081527"/><rect x="25" y="18" width="1" height="1" fill="#637886"/><rect x="26" y="18" width="3" height="1" fill="#262e34"/><rect x="29" y="18" width="7" height="1" fill="#14181b"/><rect x="36" y="18" width="2" height="1" fill="#637886"/><rect x="38" y="18" width="1" height="1" fill="#14181b"/><rect x="39" y="18" width="1" height="1" fill="#081527"/><rect x="40" y="18" width="3" height="1" fill="#422c00"/><rect x="43" y="18" width="2" height="1" fill="#081527"/><rect x="5" y="19" width="2" height="1" fill="#081527"/><rect x="7" y="19" width="1" height="1" fill="#422c00"/><rect x="8" y="19" width="1" height="1" fill="#637886"/><rect x="9" y="19" width="2" height="1" fill="#262e34"/><rect x="11" y="19" width="8" height="1" fill="#14181b"/><rect x="19" y="19" width="1" height="1" fill="#637886"/><rect x="20" y="19" width="2" height="1" fill="#14181b"/><rect x="22" y="19" width="3" height="1" fill="#081527"/><rect x="25" y="19" width="1" height="1" fill="#637886"/><rect x="26" y="19" width="3" height="1" fill="#262e34"/><rect x="29" y="19" width="9" height="1" fill="#637886"/><rect x="38" y="19" width="1" height="1" fill="#14181b"/><rect x="39" y="19" width="1" height="1" fill="#081527"/><rect x="40" y="19" width="2" height="1" fill="#422c00"/><rect x="42" y="19" width="2" height="1" fill="#081527"/><rect x="5" y="20" width="2" height="1" fill="#081527"/><rect x="7" y="20" width="1" height="1" fill="#422c00"/><rect x="8" y="20" width="1" height="1" fill="#637886"/><rect x="9" y="20" width="2" height="1" fill="#262e34"/><rect x="11" y="20" width="8" height="1" fill="#14181b"/><rect x="19" y="20" width="1" height="1" fill="#637886"/><rect x="20" y="20" width="2" height="1" fill="#14181b"/><rect x="22" y="20" width="3" height="1" fill="#081527"/><rect x="25" y="20" width="1" height="1" fill="#637886"/><rect x="26" y="20" width="3" height="1" fill="#262e34"/><rect x="29" y="20" width="9" height="1" fill="#637886"/><rect x="38" y="20" width="1" height="1" fill="#14181b"/><rect x="39" y="20" width="1" height="1" fill="#081527"/><rect x="40" y="20" width="2" height="1" fill="#422c00"/><rect x="42" y="20" width="2" height="1" fill="#081527"/><rect x="5" y="21" width="2" height="1" fill="#081527"/><rect x="7" y="21" width="1" height="1" fill="#422c00"/><rect x="8" y="21" width="1" height="1" fill="#637886"/><rect x="9" y="21" width="2" height="1" fill="#262e34"/><rect x="11" y="21" width="9" height="1" fill="#637886"/><rect x="20" y="21" width="2" height="1" fill="#14181b"/><rect x="22" y="21" width="3" height="1" fill="#081527"/><rect x="25" y="21" width="1" height="1" fill="#637886"/><rect x="26" y="21" width="3" height="1" fill="#262e34"/><rect x="29" y="21" width="8" height="1" fill="#14181b"/><rect x="37" y="21" width="1" height="1" fill="#637886"/><rect x="38" y="21" width="1" height="1" fill="#14181b"/><rect x="39" y="21" width="1" height="1" fill="#081527"/><rect x="40" y="21" width="2" height="1" fill="#422c00"/><rect x="42" y="21" width="3" height="1" fill="#081527"/><rect x="4" y="22" width="2" height="1" fill="#081527"/><rect x="6" y="22" width="2" height="1" fill="#422c00"/><rect x="8" y="22" width="1" height="1" fill="#637886"/><rect x="9" y="22" width="2" height="1" fill="#262e34"/><rect x="11" y="22" width="9" height="1" fill="#637886"/><rect x="20" y="22" width="2" height="1" fill="#14181b"/><rect x="22" y="22" width="3" height="1" fill="#081527"/><rect x="25" y="22" width="1" height="1" fill="#637886"/><rect x="26" y="22" width="3" height="1" fill="#262e34"/><rect x="29" y="22" width="8" height="1" fill="#14181b"/><rect x="37" y="22" width="1" height="1" fill="#637886"/><rect x="38" y="22" width="1" height="1" fill="#14181b"/><rect x="39" y="22" width="2" height="1" fill="#081527"/><rect x="41" y="22" width="2" height="1" fill="#422c00"/><rect x="43" y="22" width="3" height="1" fill="#081527"/><rect x="4" y="23" width="2" height="1" fill="#081527"/><rect x="6" y="23" width="2" height="1" fill="#422c00"/><rect x="8" y="23" width="1" height="1" fill="#637886"/><rect x="9" y="23" width="2" height="1" fill="#262e34"/><rect x="11" y="23" width="8" height="1" fill="#14181b"/><rect x="19" y="23" width="1" height="1" fill="#637886"/><rect x="20" y="23" width="2" height="1" fill="#14181b"/><rect x="22" y="23" width="3" height="1" fill="#081527"/><rect x="25" y="23" width="1" height="1" fill="#637886"/><rect x="26" y="23" width="3" height="1" fill="#262e34"/><rect x="29" y="23" width="9" height="1" fill="#637886"/><rect x="38" y="23" width="1" height="1" fill="#14181b"/><rect x="39" y="23" width="5" height="1" fill="#996600"/><rect x="44" y="23" width="1" height="1" fill="#c98600"/><rect x="45" y="23" width="2" height="1" fill="#081527"/><rect x="5" y="24" width="2" height="1" fill="#081527"/><rect x="7" y="24" width="1" height="1" fill="#422c00"/><rect x="8" y="24" width="1" height="1" fill="#637886"/><rect x="9" y="24" width="2" height="1" fill="#262e34"/><rect x="11" y="24" width="8" height="1" fill="#14181b"/><rect x="19" y="24" width="1" height="1" fill="#637886"/><rect x="20" y="24" width="2" height="1" fill="#14181b"/><rect x="22" y="24" width="3" height="1" fill="#081527"/><rect x="25" y="24" width="1" height="1" fill="#637886"/><rect x="26" y="24" width="3" height="1" fill="#262e34"/><rect x="29" y="24" width="9" height="1" fill="#637886"/><rect x="38" y="24" width="1" height="1" fill="#14181b"/><rect x="39" y="24" width="1" height="1" fill="#081527"/><rect x="40" y="24" width="2" height="1" fill="#422c00"/><rect x="42" y="24" width="4" height="1" fill="#081527"/><rect x="5" y="25" width="2" height="1" fill="#081527"/><rect x="7" y="25" width="1" height="1" fill="#422c00"/><rect x="8" y="25" width="1" height="1" fill="#637886"/><rect x="9" y="25" width="2" height="1" fill="#262e34"/><rect x="11" y="25" width="9" height="1" fill="#637886"/><rect x="20" y="25" width="2" height="1" fill="#14181b"/><rect x="22" y="25" width="3" height="1" fill="#081527"/><rect x="25" y="25" width="1" height="1" fill="#566874"/><rect x="26" y="25" width="3" height="1" fill="#262e34"/><rect x="29" y="25" width="9" height="1" fill="#566874"/><rect x="38" y="25" width="1" height="1" fill="#14181b"/><rect x="39" y="25" width="1" height="1" fill="#081527"/><rect x="40" y="25" width="2" height="1" fill="#422c00"/><rect x="42" y="25" width="3" height="1" fill="#081527"/><rect x="5" y="26" width="2" height="1" fill="#081527"/><rect x="7" y="26" width="1" height="1" fill="#422c00"/><rect x="8" y="26" width="1" height="1" fill="#566874"/><rect x="9" y="26" width="2" height="1" fill="#262e34"/><rect x="11" y="26" width="9" height="1" fill="#566874"/><rect x="20" y="26" width="2" height="1" fill="#14181b"/><rect x="22" y="26" width="3" height="1" fill="#081527"/><rect x="25" y="26" width="1" height="1" fill="#566874"/><rect x="26" y="26" width="3" height="1" fill="#262e34"/><rect x="29" y="26" width="7" height="1" fill="#14181b"/><rect x="36" y="26" width="2" height="1" fill="#566874"/><rect x="38" y="26" width="1" height="1" fill="#14181b"/><rect x="39" y="26" width="1" height="1" fill="#081527"/><rect x="40" y="26" width="2" height="1" fill="#422c00"/><rect x="42" y="26" width="2" height="1" fill="#081527"/><rect x="5" y="27" width="2" height="1" fill="#081527"/><rect x="7" y="27" width="1" height="1" fill="#422c00"/><rect x="8" y="27" width="1" height="1" fill="#566874"/><rect x="9" y="27" width="2" height="1" fill="#262e34"/><rect x="11" y="27" width="9" height="1" fill="#566874"/><rect x="20" y="27" width="2" height="1" fill="#14181b"/><rect x="22" y="27" width="3" height="1" fill="#081527"/><rect x="25" y="27" width="1" height="1" fill="#566874"/><rect x="26" y="27" width="3" height="1" fill="#262e34"/><rect x="29" y="27" width="7" height="1" fill="#14181b"/><rect x="36" y="27" width="2" height="1" fill="#566874"/><rect x="38" y="27" width="1" height="1" fill="#14181b"/><rect x="39" y="27" width="1" height="1" fill="#081527"/><rect x="40" y="27" width="2" height="1" fill="#422c00"/><rect x="42" y="27" width="2" height="1" fill="#081527"/><rect x="5" y="28" width="2" height="1" fill="#081527"/><rect x="7" y="28" width="1" height="1" fill="#422c00"/><rect x="8" y="28" width="1" height="1" fill="#566874"/><rect x="9" y="28" width="2" height="1" fill="#262e34"/><rect x="11" y="28" width="8" height="1" fill="#14181b"/><rect x="19" y="28" width="1" height="1" fill="#566874"/><rect x="20" y="28" width="2" height="1" fill="#14181b"/><rect x="22" y="28" width="3" height="1" fill="#081527"/><rect x="25" y="28" width="1" height="1" fill="#566874"/><rect x="26" y="28" width="3" height="1" fill="#262e34"/><rect x="29" y="28" width="9" height="1" fill="#566874"/><rect x="38" y="28" width="1" height="1" fill="#14181b"/><rect x="39" y="28" width="3" height="1" fill="#422c00"/><rect x="42" y="28" width="2" height="1" fill="#081527"/><rect x="6" y="29" width="2" height="1" fill="#081527"/><rect x="8" y="29" width="1" height="1" fill="#566874"/><rect x="9" y="29" width="2" height="1" fill="#262e34"/><rect x="11" y="29" width="8" height="1" fill="#14181b"/><rect x="19" y="29" width="1" height="1" fill="#566874"/><rect x="20" y="29" width="2" height="1" fill="#14181b"/><rect x="22" y="29" width="3" height="1" fill="#081527"/><rect x="25" y="29" width="1" height="1" fill="#566874"/><rect x="26" y="29" width="3" height="1" fill="#262e34"/><rect x="29" y="29" width="9" height="1" fill="#566874"/><rect x="38" y="29" width="1" height="1" fill="#14181b"/><rect x="39" y="29" width="2" height="1" fill="#422c00"/><rect x="41" y="29" width="2" height="1" fill="#081527"/><rect x="6" y="30" width="2" height="1" fill="#081527"/><rect x="8" y="30" width="1" height="1" fill="#566874"/><rect x="9" y="30" width="2" height="1" fill="#262e34"/><rect x="11" y="30" width="9" height="1" fill="#566874"/><rect x="20" y="30" width="2" height="1" fill="#14181b"/><rect x="22" y="30" width="3" height="1" fill="#081527"/><rect x="25" y="30" width="1" height="1" fill="#566874"/><rect x="26" y="30" width="3" height="1" fill="#262e34"/><rect x="29" y="30" width="8" height="1" fill="#14181b"/><rect x="37" y="30" width="1" height="1" fill="#566874"/><rect x="38" y="30" width="1" height="1" fill="#14181b"/><rect x="39" y="30" width="1" height="1" fill="#422c00"/><rect x="40" y="30" width="2" height="1" fill="#081527"/><rect x="6" y="31" width="2" height="1" fill="#081527"/><rect x="8" y="31" width="1" height="1" fill="#566874"/><rect x="9" y="31" width="2" height="1" fill="#262e34"/><rect x="11" y="31" width="9" height="1" fill="#566874"/><rect x="20" y="31" width="2" height="1" fill="#14181b"/><rect x="22" y="31" width="3" height="1" fill="#081527"/><rect x="25" y="31" width="1" height="1" fill="#566874"/><rect x="26" y="31" width="3" height="1" fill="#262e34"/><rect x="29" y="31" width="8" height="1" fill="#14181b"/><rect x="37" y="31" width="1" height="1" fill="#566874"/><rect x="38" y="31" width="1" height="1" fill="#14181b"/><rect x="39" y="31" width="1" height="1" fill="#422c00"/><rect x="40" y="31" width="2" height="1" fill="#081527"/><rect x="6" y="32" width="2" height="1" fill="#081527"/><rect x="8" y="32" width="1" height="1" fill="#566874"/><rect x="9" y="32" width="2" height="1" fill="#262e34"/><rect x="11" y="32" width="8" height="1" fill="#14181b"/><rect x="19" y="32" width="1" height="1" fill="#566874"/><rect x="20" y="32" width="2" height="1" fill="#14181b"/><rect x="22" y="32" width="3" height="1" fill="#081527"/><rect x="25" y="32" width="1" height="1" fill="#3d4a52"/><rect x="26" y="32" width="3" height="1" fill="#262e34"/><rect x="29" y="32" width="9" height="1" fill="#3d4a52"/><rect x="38" y="32" width="1" height="1" fill="#14181b"/><rect x="39" y="32" width="2" height="1" fill="#081527"/><rect x="6" y="33" width="2" height="1" fill="#081527"/><rect x="8" y="33" width="1" height="1" fill="#3d4a52"/><rect x="9" y="33" width="2" height="1" fill="#262e34"/><rect x="11" y="33" width="8" height="1" fill="#14181b"/><rect x="19" y="33" width="1" height="1" fill="#3d4a52"/><rect x="20" y="33" width="2" height="1" fill="#14181b"/><rect x="22" y="33" width="3" height="1" fill="#081527"/><rect x="25" y="33" width="1" height="1" fill="#3d4a52"/><rect x="26" y="33" width="3" height="1" fill="#262e34"/><rect x="29" y="33" width="5" height="1" fill="#3d4a52"/><rect x="34" y="33" width="1" height="1" fill="#262e34"/><rect x="35" y="33" width="3" height="1" fill="#3d4a52"/><rect x="38" y="33" width="1" height="1" fill="#14181b"/><rect x="39" y="33" width="2" height="1" fill="#081527"/><rect x="6" y="34" width="2" height="1" fill="#081527"/><rect x="8" y="34" width="1" height="1" fill="#3d4a52"/><rect x="9" y="34" width="2" height="1" fill="#262e34"/><rect x="11" y="34" width="9" height="1" fill="#3d4a52"/><rect x="20" y="34" width="2" height="1" fill="#14181b"/><rect x="22" y="34" width="2" height="1" fill="#081527"/><rect x="24" y="34" width="1" height="1" fill="#422c00"/><rect x="25" y="34" width="1" height="1" fill="#3d4a52"/><rect x="26" y="34" width="3" height="1" fill="#262e34"/><rect x="29" y="34" width="4" height="1" fill="#3d4a52"/><rect x="33" y="34" width="1" height="1" fill="#262e34"/><rect x="34" y="34" width="4" height="1" fill="#3d4a52"/><rect x="38" y="34" width="1" height="1" fill="#14181b"/><rect x="39" y="34" width="2" height="1" fill="#081527"/><rect x="6" y="35" width="2" height="1" fill="#081527"/><rect x="8" y="35" width="1" height="1" fill="#3d4a52"/><rect x="9" y="35" width="2" height="1" fill="#262e34"/><rect x="11" y="35" width="6" height="1" fill="#3d4a52"/><rect x="17" y="35" width="1" height="1" fill="#262e34"/><rect x="18" y="35" width="2" height="1" fill="#3d4a52"/><rect x="20" y="35" width="2" height="1" fill="#14181b"/><rect x="22" y="35" width="2" height="1" fill="#081527"/><rect x="24" y="35" width="1" height="1" fill="#422c00"/><rect x="25" y="35" width="1" height="1" fill="#3d4a52"/><rect x="26" y="35" width="3" height="1" fill="#262e34"/><rect x="29" y="35" width="7" height="1" fill="#14181b"/><rect x="36" y="35" width="2" height="1" fill="#3d4a52"/><rect x="38" y="35" width="1" height="1" fill="#14181b"/><rect x="39" y="35" width="2" height="1" fill="#081527"/><rect x="6" y="36" width="2" height="1" fill="#081527"/><rect x="8" y="36" width="1" height="1" fill="#3d4a52"/><rect x="9" y="36" width="2" height="1" fill="#262e34"/><rect x="11" y="36" width="6" height="1" fill="#3d4a52"/><rect x="17" y="36" width="1" height="1" fill="#262e34"/><rect x="18" y="36" width="2" height="1" fill="#3d4a52"/><rect x="20" y="36" width="2" height="1" fill="#14181b"/><rect x="22" y="36" width="2" height="1" fill="#081527"/><rect x="24" y="36" width="1" height="1" fill="#422c00"/><rect x="25" y="36" width="1" height="1" fill="#3d4a52"/><rect x="26" y="36" width="3" height="1" fill="#262e34"/><rect x="29" y="36" width="7" height="1" fill="#14181b"/><rect x="36" y="36" width="2" height="1" fill="#3d4a52"/><rect x="38" y="36" width="1" height="1" fill="#14181b"/><rect x="39" y="36" width="2" height="1" fill="#081527"/><rect x="6" y="37" width="2" height="1" fill="#081527"/><rect x="8" y="37" width="1" height="1" fill="#3d4a52"/><rect x="9" y="37" width="2" height="1" fill="#262e34"/><rect x="11" y="37" width="8" height="1" fill="#14181b"/><rect x="19" y="37" width="1" height="1" fill="#3d4a52"/><rect x="20" y="37" width="2" height="1" fill="#14181b"/><rect x="22" y="37" width="2" height="1" fill="#081527"/><rect x="24" y="37" width="1" height="1" fill="#422c00"/><rect x="25" y="37" width="1" height="1" fill="#3d4a52"/><rect x="26" y="37" width="3" height="1" fill="#262e34"/><rect x="29" y="37" width="9" height="1" fill="#3d4a52"/><rect x="38" y="37" width="1" height="1" fill="#14181b"/><rect x="39" y="37" width="2" height="1" fill="#081527"/><rect x="6" y="38" width="2" height="1" fill="#081527"/><rect x="8" y="38" width="1" height="1" fill="#3d4a52"/><rect x="9" y="38" width="2" height="1" fill="#262e34"/><rect x="11" y="38" width="11" height="1" fill="#14181b"/><rect x="22" y="38" width="2" height="1" fill="#081527"/><rect x="24" y="38" width="1" height="1" fill="#422c00"/><rect x="25" y="38" width="1" height="1" fill="#3d4a52"/><rect x="26" y="38" width="3" height="1" fill="#262e34"/><rect x="29" y="38" width="2" height="1" fill="#3d4a52"/><rect x="31" y="38" width="8" height="1" fill="#14181b"/><rect x="39" y="38" width="2" height="1" fill="#081527"/><rect x="6" y="39" width="2" height="1" fill="#081527"/><rect x="8" y="39" width="7" height="1" fill="#14181b"/><rect x="15" y="39" width="4" height="1" fill="#081527"/><rect x="19" y="39" width="6" height="1" fill="#422c00"/><rect x="25" y="39" width="7" height="1" fill="#14181b"/><rect x="32" y="39" width="8" height="1" fill="#081527"/><rect x="7" y="40" width="17" height="1" fill="#081527"/><rect x="24" y="40" width="1" height="1" fill="#422c00"/><rect x="25" y="40" width="4" height="1" fill="#081527"/><rect x="29" y="40" width="1" height="1" fill="#422c00"/><rect x="30" y="40" width="9" height="1" fill="#081527"/><rect x="8" y="41" width="7" height="1" fill="#081527"/><rect x="19" y="41" width="11" height="1" fill="#081527"/><rect x="30" y="41" width="1" height="1" fill="#422c00"/><rect x="31" y="41" width="2" height="1" fill="#081527"/><rect x="24" y="42" width="1" height="1" fill="#081527"/><rect x="28" y="42" width="2" height="1" fill="#081527"/><rect x="30" y="42" width="1" height="1" fill="#c98600"/><rect x="31" y="42" width="2" height="1" fill="#081527"/><rect x="29" y="43" width="3" height="1" fill="#081527"/><rect x="30" y="44" width="1" height="1" fill="#081527"/></svg>
